<svg width="40" height="8" viewBox="0 0 40 8" fill="none" xmlns="http://www.w3.org/2000/svg">
<g id="&#229;&#189;&#162;&#231;&#138;&#182;_4_2_">
<g id="&#229;&#189;&#162;&#231;&#138;&#182;_4_1_">
<g id="Group">
<path id="Vector" fill-rule="evenodd" clip-rule="evenodd" d="M35.1313 2.69497C30.3446 4.54442 25.1424 5.43836 20.4101 5.43836C13.3948 5.43836 6.60249 3.68583 1.11013 0.774653C0.629688 0.519988 0.272915 0.969655 0.672507 1.29795C5.76368 5.48508 12.4906 8 19.9616 8C25.2916 8 31.4822 6.47332 35.752 3.60347C36.4583 3.12848 35.8534 2.41601 35.1313 2.69497ZM39.3505 0.488701C38.8851 -0.0340161 34.8806 -0.485863 32.4368 1.07778C32.0611 1.31847 32.1258 1.64939 32.5423 1.60399C33.9187 1.45454 36.9829 1.11896 37.529 1.75591C38.0756 2.39287 36.9213 5.0178 36.4066 6.19028C36.2503 6.54448 36.5853 6.68797 36.9378 6.41963C39.2283 4.67379 39.82 1.01753 39.3505 0.488701Z" fill="#F2941B"/>
</g>
</g>
</g>
</svg>
