<svg width="64" height="64" viewBox="0 0 64 64" fill="none" xmlns="http://www.w3.org/2000/svg">
<g id="Layer_1">
<g id="Group">
<path id="Vector" d="M24 29H27V32H28V23V22H24V23H27V28H24V23H23V32H24V29Z" fill="black"/>
<path id="Vector_2" d="M31 29H35V23H34V28H31V23H34V22H30V32H31V29Z" fill="black"/>
<path id="Vector_3" d="M40 31H39V23H40V22H37V23H38V31H37V32H40V31Z" fill="black"/>
<path id="Vector_4" d="M19 8.429V12.24L24 16.24V19H20V22H15.237L12.566 18.729C12.834 18.389 13 17.966 13 17.5C13 16.396 12.104 15.5 11 15.5C9.896 15.5 9 16.396 9 17.5C9 18.604 9.896 19.5 11 19.5C11.275 19.5 11.538 19.444 11.776 19.343L14.763 23H20V25H13.793L12.01 26.783C11.712 26.607 11.37 26.5 11 26.5C9.896 26.5 9 27.396 9 28.5C9 29.604 9.896 30.5 11 30.5C12.104 30.5 13 29.604 13 28.5C13 28.13 12.893 27.788 12.717 27.49L14.207 26H20V31H13.793L12.01 32.783C11.712 32.607 11.37 32.5 11 32.5C9.896 32.5 9 33.396 9 34.5C9 35.604 9.896 36.5 11 36.5C12.104 36.5 13 35.604 13 34.5C13 34.13 12.893 33.788 12.717 33.49L14.207 32H20V35H24V36C23.139 36.223 22.5 36.999 22.5 37.929C22.5 39.033 23.396 39.929 24.5 39.929C25.604 39.929 26.5 39.033 26.5 37.929C26.5 36.999 25.861 36.223 25 36V35H29V36C28.139 36.223 27.5 36.999 27.5 37.929C27.5 39.033 28.396 39.929 29.5 39.929C30.604 39.929 31.5 39.033 31.5 37.929C31.5 36.999 30.861 36.223 30 36V35H34V36C33.139 36.223 32.5 36.999 32.5 37.929C32.5 39.033 33.396 39.929 34.5 39.929C35.604 39.929 36.5 39.033 36.5 37.929C36.5 36.999 35.861 36.223 35 36V35H39V36C38.139 36.223 37.5 36.999 37.5 37.929C37.5 39.033 38.396 39.929 39.5 39.929C40.604 39.929 41.5 39.033 41.5 37.929C41.5 36.999 40.861 36.223 40 36V35H44V32H49.793L51.283 33.49C51.107 33.788 51 34.13 51 34.5C51 35.604 51.896 36.5 53 36.5C54.104 36.5 55 35.604 55 34.5C55 33.396 54.104 32.5 53 32.5C52.63 32.5 52.288 32.607 51.99 32.783L50.207 31H44V29H50.203L51.72 27.524C52.067 27.817 52.51 28 53 28C54.104 28 55 27.104 55 26C55 24.896 54.104 24 53 24C51.896 24 51 24.896 51 26C51 26.247 51.051 26.481 51.133 26.7L49.797 28H44V23H49.237L52.223 19.343C52.462 19.444 52.725 19.5 53 19.5C54.104 19.5 55 18.604 55 17.5C55 16.396 54.104 15.5 53 15.5C51.896 15.5 51 16.396 51 17.5C51 17.966 51.166 18.389 51.434 18.729L48.763 22H44V19H40V16.24L45 12.24V8.429C45.861 8.206 46.5 7.43 46.5 6.5C46.5 5.396 45.604 4.5 44.5 4.5C43.396 4.5 42.5 5.396 42.5 6.5C42.5 7.43 43.139 8.206 44 8.429V11.76L39 15.76V19H35V14.244L40 10.327V8.429C40.861 8.206 41.5 7.43 41.5 6.5C41.5 5.396 40.604 4.5 39.5 4.5C38.396 4.5 37.5 5.396 37.5 6.5C37.5 7.43 38.139 8.206 39 8.429V9.84L34 13.757V19H30V13.756L25 9.84V8.429C25.861 8.206 26.5 7.43 26.5 6.5C26.5 5.396 25.604 4.5 24.5 4.5C23.396 4.5 22.5 5.396 22.5 6.5C22.5 7.43 23.139 8.206 24 8.429V10.327L29 14.244V19H25V15.76L20 11.76V8.429C20.861 8.206 21.5 7.43 21.5 6.5C21.5 5.396 20.604 4.5 19.5 4.5C18.396 4.5 17.5 5.396 17.5 6.5C17.5 7.43 18.139 8.206 19 8.429ZM11 18.5C10.448 18.5 10 18.052 10 17.5C10 16.948 10.448 16.5 11 16.5C11.552 16.5 12 16.948 12 17.5C12 18.052 11.552 18.5 11 18.5ZM11 29.5C10.448 29.5 10 29.052 10 28.5C10 27.948 10.448 27.5 11 27.5C11.552 27.5 12 27.948 12 28.5C12 29.052 11.552 29.5 11 29.5ZM11 35.5C10.448 35.5 10 35.052 10 34.5C10 33.948 10.448 33.5 11 33.5C11.552 33.5 12 33.948 12 34.5C12 35.052 11.552 35.5 11 35.5ZM53 33.5C53.552 33.5 54 33.948 54 34.5C54 35.052 53.552 35.5 53 35.5C52.448 35.5 52 35.052 52 34.5C52 33.948 52.448 33.5 53 33.5ZM53 25C53.552 25 54 25.448 54 26C54 26.552 53.552 27 53 27C52.448 27 52 26.552 52 26C52 25.448 52.448 25 53 25ZM53 16.5C53.552 16.5 54 16.948 54 17.5C54 18.052 53.552 18.5 53 18.5C52.448 18.5 52 18.052 52 17.5C52 16.948 52.448 16.5 53 16.5ZM43.5 6.5C43.5 5.948 43.948 5.5 44.5 5.5C45.052 5.5 45.5 5.948 45.5 6.5C45.5 7.052 45.052 7.5 44.5 7.5C43.948 7.5 43.5 7.052 43.5 6.5ZM38.5 6.5C38.5 5.948 38.948 5.5 39.5 5.5C40.052 5.5 40.5 5.948 40.5 6.5C40.5 7.052 40.052 7.5 39.5 7.5C38.948 7.5 38.5 7.052 38.5 6.5ZM23.5 6.5C23.5 5.948 23.948 5.5 24.5 5.5C25.052 5.5 25.5 5.948 25.5 6.5C25.5 7.052 25.052 7.5 24.5 7.5C23.948 7.5 23.5 7.052 23.5 6.5ZM25.5 37.929C25.5 38.481 25.052 38.929 24.5 38.929C23.948 38.929 23.5 38.481 23.5 37.929C23.5 37.377 23.948 36.929 24.5 36.929C25.052 36.929 25.5 37.377 25.5 37.929ZM30.5 37.929C30.5 38.481 30.052 38.929 29.5 38.929C28.948 38.929 28.5 38.481 28.5 37.929C28.5 37.377 28.948 36.929 29.5 36.929C30.052 36.929 30.5 37.377 30.5 37.929ZM35.5 37.929C35.5 38.481 35.052 38.929 34.5 38.929C33.948 38.929 33.5 38.481 33.5 37.929C33.5 37.377 33.948 36.929 34.5 36.929C35.052 36.929 35.5 37.377 35.5 37.929ZM40.5 37.929C40.5 38.481 40.052 38.929 39.5 38.929C38.948 38.929 38.5 38.481 38.5 37.929C38.5 37.377 38.948 36.929 39.5 36.929C40.052 36.929 40.5 37.377 40.5 37.929ZM43 20V22V23V28V29V31V32V34H21V32V31V26V25V23V22V20H43ZM19.5 5.5C20.052 5.5 20.5 5.948 20.5 6.5C20.5 7.052 20.052 7.5 19.5 7.5C18.948 7.5 18.5 7.052 18.5 6.5C18.5 5.948 18.948 5.5 19.5 5.5Z" fill="black"/>
<path id="Vector_5" d="M57 10H46V11H57C57.551 11 58 11.449 58 12V44H6V12C6 11.449 6.449 11 7 11H18V10H7C5.9 10 5 10.9 5 12V44V44.288V47C5 48.1 5.9 49 7 49H25.714L24.285 54H21C19.896 54 19 54.896 19 56V57H45V56C45 54.896 44.104 54 43 54H39.714L38.285 49H57C58.1 49 59 48.1 59 47V44.825V44V12C59 10.9 58.1 10 57 10ZM40 55H43C43.551 55 44 55.449 44 56H20C20 55.449 20.449 55 21 55H24H40ZM38.674 54H25.326L26.755 49H37.246L38.674 54ZM58 47C58 47.551 57.551 48 57 48H38H26H7C6.449 48 6 47.551 6 47V45H58V47Z" fill="black"/>
<path id="Vector_6" d="M21 10V11H23.237L23 10.814V10H21Z" fill="black"/>
<path id="Vector_7" d="M35.8972 11L37.1742 10H26.8262L28.1032 11H35.8972Z" fill="black"/>
<path id="Vector_8" d="M43.0002 10H41.0002V10.814L40.7632 11H43.0002V10Z" fill="black"/>
<path id="Vector_9" d="M33.3439 13L34.6209 12H29.3789L30.6559 13H33.3439Z" fill="black"/>
<path id="Vector_10" d="M7 12V42H57V12H46V12.721L45.651 13H56V41H8V13H18.349L18 12.721V12H7Z" fill="black"/>
<path id="Vector_11" d="M25.7909 13L24.5139 12H21.9009L23.1509 13H25.7909Z" fill="black"/>
<path id="Vector_12" d="M38.209 13H40.849L42.099 12H39.486L38.209 13Z" fill="black"/>
</g>
</g>
</svg>
