<svg width="19" height="20" viewBox="0 0 19 20" fill="none" xmlns="http://www.w3.org/2000/svg">
<g id="Layer 3">
<path id="Vector" d="M8.40014 4.45246C8.40306 4.53313 8.42193 4.61242 8.45565 4.68577C8.48937 4.75911 8.53728 4.82505 8.59661 4.87978C8.65595 4.93451 8.72553 4.97696 8.80135 5.00466C8.87717 5.03237 8.95772 5.04478 9.03837 5.0412L13.013 4.88087L3.25328 15.4611C3.14332 15.5803 3.08522 15.7383 3.09176 15.9003C3.09829 16.0624 3.16893 16.2152 3.28814 16.3251C3.40734 16.4351 3.56534 16.4932 3.72738 16.4867C3.88943 16.4801 4.04224 16.4095 4.1522 16.2903L13.9037 5.71907L14.0588 9.67232C14.0658 9.83371 14.1364 9.98578 14.2551 10.0953C14.3738 10.2048 14.5311 10.2629 14.6925 10.2569C14.8539 10.2499 15.006 10.1793 15.1155 10.0606C15.2251 9.94186 15.2832 9.78461 15.2771 9.62317L15.0555 4.12775C15.054 4.05523 15.038 3.98374 15.0082 3.91758C14.9784 3.85143 14.9356 3.79197 14.8823 3.74278C14.829 3.6936 14.7663 3.65571 14.6979 3.63138C14.6296 3.60704 14.557 3.59678 14.4846 3.60121L8.98887 3.81423C8.9082 3.81716 8.82891 3.83602 8.75557 3.86974C8.68223 3.90347 8.61629 3.95138 8.56156 4.01071C8.50682 4.07004 8.46438 4.13963 8.43668 4.21545C8.40897 4.29126 8.39655 4.37182 8.40014 4.45246Z" fill="blue"/>
</g>
</svg>
