<svg width="100" height="100" viewBox="0 0 100 100" fill="none" xmlns="http://www.w3.org/2000/svg">
<g id="Layer_1">
<g id="Group">
<g id="Group_2">
<path id="Vector" d="M22.0998 54.7H21.7998V29.7H37.5998V30H22.0998V54.7Z" fill="#C0C7CB"/>
</g>
<g id="Group_3">
<path id="Vector_2" d="M22.2999 44.5C27.4914 44.5 31.6999 40.2914 31.6999 35.0999C31.6999 29.9085 27.4914 25.7 22.2999 25.7C17.1084 25.7 12.8999 29.9085 12.8999 35.0999C12.8999 40.2914 17.1084 44.5 22.2999 44.5Z" fill="#BDDAEA"/>
</g>
<g id="Group_4">
<path id="Vector_3" d="M18.5998 29.6H16.7998V31.4H18.5998V29.6Z" fill="#82949D"/>
</g>
<g id="Group_5">
<path id="Vector_4" d="M20.9001 29.6H19.1001V31.4H20.9001V29.6Z" fill="#509ACA"/>
</g>
<g id="Group_6">
<path id="Vector_5" d="M23.1999 29.6H21.3999V31.4H23.1999V29.6Z" fill="#E3A271"/>
</g>
<g id="Group_7">
<path id="Vector_6" d="M25.4997 29.6H23.6997V31.4H25.4997V29.6Z" fill="#509ACA"/>
</g>
<g id="Group_8">
<path id="Vector_7" d="M27.8 29.6H26V31.4H27.8V29.6Z" fill="#75A492"/>
</g>
<g id="Group_9">
<path id="Vector_8" d="M18.5998 31.9H16.7998V33.7H18.5998V31.9Z" fill="#509ACA"/>
</g>
<g id="Group_10">
<path id="Vector_9" d="M20.9001 31.9H19.1001V33.7H20.9001V31.9Z" fill="#75A492"/>
</g>
<g id="Group_11">
<path id="Vector_10" d="M23.1999 31.9H21.3999V33.7H23.1999V31.9Z" fill="#509ACA"/>
</g>
<g id="Group_12">
<path id="Vector_11" d="M25.4997 31.9H23.6997V33.7H25.4997V31.9Z" fill="#43484A"/>
</g>
<g id="Group_13">
<path id="Vector_12" d="M27.8 31.9H26V33.7H27.8V31.9Z" fill="#67AD68"/>
</g>
<g id="Group_14">
<path id="Vector_13" d="M18.5998 34.2H16.7998V36H18.5998V34.2Z" fill="#82949D"/>
</g>
<g id="Group_15">
<path id="Vector_14" d="M20.9001 34.2H19.1001V36H20.9001V34.2Z" fill="#E3A271"/>
</g>
<g id="Group_16">
<path id="Vector_15" d="M23.1999 34.2H21.3999V36H23.1999V34.2Z" fill="#67AD68"/>
</g>
<g id="Group_17">
<path id="Vector_16" d="M25.4997 34.2H23.6997V36H25.4997V34.2Z" fill="#509ACA"/>
</g>
<g id="Group_18">
<path id="Vector_17" d="M27.8 34.2H26V36H27.8V34.2Z" fill="#43484A"/>
</g>
<g id="Group_19">
<path id="Vector_18" d="M18.5998 36.5H16.7998V38.3H18.5998V36.5Z" fill="#43484A"/>
</g>
<g id="Group_20">
<path id="Vector_19" d="M20.9001 36.5H19.1001V38.3H20.9001V36.5Z" fill="#82949D"/>
</g>
<g id="Group_21">
<path id="Vector_20" d="M23.1999 36.5H21.3999V38.3H23.1999V36.5Z" fill="#67AD68"/>
</g>
<g id="Group_22">
<path id="Vector_21" d="M25.4997 36.5H23.6997V38.3H25.4997V36.5Z" fill="#E3A271"/>
</g>
<g id="Group_23">
<path id="Vector_22" d="M27.8 36.5H26V38.3H27.8V36.5Z" fill="#75A492"/>
</g>
<g id="Group_24">
<path id="Vector_23" d="M18.5998 38.7999H16.7998V40.5999H18.5998V38.7999Z" fill="#67AD68"/>
</g>
<g id="Group_25">
<path id="Vector_24" d="M20.9001 38.7999H19.1001V40.5999H20.9001V38.7999Z" fill="#509ACA"/>
</g>
<g id="Group_26">
<path id="Vector_25" d="M23.1999 38.7999H21.3999V40.5999H23.1999V38.7999Z" fill="#43484A"/>
</g>
<g id="Group_27">
<path id="Vector_26" d="M25.4997 38.7999H23.6997V40.5999H25.4997V38.7999Z" fill="#509ACA"/>
</g>
<g id="Group_28">
<path id="Vector_27" d="M27.8 38.7999H26V40.5999H27.8V38.7999Z" fill="#E3A271"/>
</g>
<g id="_Group_">
<g id="_Group_2">
<g id="_Compound_Path_">
<path id="Vector_28" d="M64.7999 70.1999L64.3999 69.9999C64.3999 69.6999 64.3999 69.2999 64.3999 68.9999L64.7999 68.8C65.0999 68.7 65.1999 68.3999 65.0999 68.0999L64.7999 67.4999C64.6999 67.1999 64.3999 67.0999 64.0999 67.1999L63.6999 67.4C63.4999 67.1 63.1999 66.8999 62.8999 66.6999L63.0999 66.1999C63.1999 65.8999 63.0999 65.5999 62.7999 65.4999L62.1999 65.3C61.8999 65.2 61.5999 65.2999 61.4999 65.5999L61.1999 65.9999C60.8999 65.9999 60.4999 65.9999 60.1999 65.9999L59.9999 65.5999C59.8999 65.2999 59.5999 65.2 59.2999 65.3L58.6999 65.5999C58.3999 65.6999 58.2999 66 58.3999 66.3L58.5999 66.6999C58.2999 66.8999 58.0999 67.1999 57.8999 67.4999L57.4999 67.3C57.1999 67.2 56.8999 67.2999 56.7999 67.5999L56.5999 68.1999C56.4999 68.2999 56.4999 68.4999 56.5999 68.5999C56.6999 68.6999 56.7999 68.8 56.8999 68.9L57.3999 69.0999C57.3999 69.3999 57.3999 69.7999 57.3999 70.0999L56.9999 70.3C56.6999 70.4 56.5999 70.6999 56.6999 70.9999L56.9999 71.5999C57.0999 71.8999 57.3999 72 57.6999 71.9L58.0999 71.6999C58.2999 71.9999 58.5999 72.2 58.8999 72.4L58.5999 72.9999C58.4999 73.0999 58.4999 73.2999 58.5999 73.4C58.6999 73.5 58.7999 73.5999 58.8999 73.6999L59.4999 73.9C59.5999 74 59.7999 74 59.8999 73.9C59.9999 73.7999 60.0999 73.6999 60.1999 73.5999L60.3999 73.0999C60.6999 73.0999 61.0999 73.0999 61.3999 73.0999L61.5999 73.4999C61.6999 73.7999 61.9999 73.9 62.2999 73.8L62.8999 73.4999C63.1999 73.3999 63.2999 73.1 63.1999 72.8L62.9999 72.4C63.2999 72.2 63.4999 71.8999 63.6999 71.5999L64.1999 71.8C64.2999 71.9 64.4999 71.9 64.5999 71.8C64.6999 71.7 64.7999 71.5999 64.8999 71.4999L65.0999 70.9C65.1999 70.6 65.0999 70.2999 64.7999 70.1999ZM61.6999 71.5999C61.3999 71.6999 61.0999 71.8 60.7999 71.8C59.8999 71.8 59.1999 71.2999 58.7999 70.4999C58.2999 69.3999 58.7999 68.0999 59.8999 67.5999C60.1999 67.4999 60.4999 67.4 60.7999 67.4C61.6999 67.4 62.3999 67.8999 62.7999 68.6999C63.2999 69.7999 62.8999 71.0999 61.6999 71.5999Z" fill="#BDDAEA"/>
</g>
<g id="_Compound_Path_2">
<path id="Vector_29" d="M70.3997 71.9L70.0997 71.8C70.0997 71.6 70.0997 71.4 70.0997 71.2L70.3997 71.1C70.5997 71 70.5997 70.9 70.5997 70.7L70.4997 70.4C70.3997 70.2 70.2997 70.2 70.0997 70.2L69.7997 70.3C69.6997 70.1 69.5997 70 69.3997 69.9L69.4997 69.6C69.5997 69.4 69.4997 69.3 69.2997 69.2L68.9997 69.1C68.7997 69.1 68.6997 69.1 68.5997 69.3L68.4997 69.6C68.2997 69.6 68.0997 69.6 67.8997 69.6L67.7997 69.3C67.6997 69.1 67.5997 69.1 67.3997 69.1L66.9997 69.3C66.7997 69.4 66.7997 69.5 66.7997 69.7L66.8997 70C66.6997 70.1 66.5997 70.2 66.4997 70.4L66.1997 70.3C65.9997 70.3 65.8997 70.3 65.7997 70.5L65.6997 70.8C65.6997 70.9 65.6997 71 65.6997 71C65.6997 71 65.7997 71.2 65.8997 71.2L66.1997 71.3C66.1997 71.5 66.1997 71.7 66.1997 71.9L65.8997 72C65.6997 72.1 65.6997 72.2 65.6997 72.4L65.7997 72.7C65.8997 72.9 65.9997 72.9 66.1997 72.9L66.4997 72.8C66.5997 73 66.6997 73.1 66.8997 73.2L66.7997 73.5C66.7997 73.6 66.7997 73.7 66.7997 73.7C66.7997 73.8 66.8997 73.9 66.9997 73.9L67.2997 74C67.3997 74 67.4997 74 67.4997 74C67.5997 74 67.5997 73.9 67.6997 73.8L67.7997 73.5C67.9997 73.5 68.1997 73.5 68.3997 73.5L68.4997 73.8C68.5997 74 68.6997 74 68.8997 74L69.1997 73.9C69.3997 73.8 69.3997 73.7 69.3997 73.5L69.2997 73C69.4997 72.9 69.5997 72.8 69.6997 72.6L69.9997 72.7C70.0997 72.7 70.1997 72.7 70.1997 72.7C70.1997 72.7 70.3997 72.6 70.3997 72.5L70.4997 72.2C70.5997 72.1 70.4997 71.9 70.3997 71.9ZM68.5997 72.6C68.3997 72.7 68.2997 72.7 68.0997 72.7C67.5997 72.7 67.1997 72.4 66.9997 72C66.6997 71.4 66.9997 70.6 67.5997 70.4C67.7997 70.3 67.8997 70.3 68.0997 70.3C68.5997 70.3 68.9997 70.6 69.1997 71C69.4997 71.7 69.2997 72.4 68.5997 72.6Z" fill="#BDDAEA"/>
</g>
<g id="_Compound_Path_3">
<path id="Vector_30" d="M76.2999 62.1L75.4999 61.8C75.5999 61.2 75.4999 60.6 75.4999 60.1L76.2999 59.8C76.7999 59.6 76.9999 59 76.7999 58.6L76.3999 57.6C76.1999 57.1 75.5999 56.9 75.1999 57.1L74.3999 57.4C73.9999 56.9 73.5999 56.5 73.0999 56.2L73.3999 55.4C73.5999 54.9 73.2999 54.4 72.8999 54.2L71.8999 53.8C71.3999 53.6 70.8999 53.9 70.6999 54.3L70.3999 55.1C69.7999 55 69.1999 55.1 68.6999 55.1L68.3999 54.4C68.1999 53.9 67.5999 53.7 67.1999 53.9L66.1999 54.4C65.6999 54.6 65.4999 55.2 65.6999 55.6L65.9999 56.4C65.4999 56.8 65.0999 57.2 64.7999 57.7L63.9999 57.4C63.4999 57.2 62.9999 57.5 62.7999 57.9L62.3999 58.9C62.2999 59.1 62.2999 59.4 62.3999 59.6C62.4999 59.8 62.6999 60 62.8999 60.1L63.6999 60.4C63.5999 61 63.6999 61.6 63.6999 62.1L62.8999 62.4C62.3999 62.6 62.1999 63.2 62.3999 63.6L62.7999 64.6C62.9999 65.1 63.5999 65.3 63.9999 65.1L64.7999 64.8C65.1999 65.3 65.5999 65.7 66.0999 66L65.7999 66.8C65.6999 67 65.6999 67.3 65.7999 67.5C65.8999 67.7 66.0999 67.9 66.2999 68L67.2999 68.4C67.4999 68.5 67.7999 68.5 67.9999 68.4C68.1999 68.3 68.3999 68.1 68.4999 67.9L68.7999 67.1C69.3999 67.2 69.9999 67.1 70.4999 67.1L70.7999 67.9C70.9999 68.4 71.5999 68.6 71.9999 68.4L72.9999 68C73.4999 67.8 73.6999 67.2 73.4999 66.8L73.1999 66C73.6999 65.6 74.0999 65.2 74.3999 64.7L75.1999 65C75.3999 65.1 75.6999 65.1 75.8999 65C76.0999 64.9 76.2999 64.7 76.3999 64.5L76.7999 63.5C77.0999 62.9 76.7999 62.3 76.2999 62.1ZM71.0999 64.5C70.5999 64.7 70.0999 64.8 69.4999 64.8C67.3999 64.8 65.7999 63.1 65.7999 61.1C65.7999 59.6 66.6999 58.3 67.9999 57.7C68.4999 57.5 68.9999 57.4 69.5999 57.4C71.6999 57.4 73.2999 59.1 73.2999 61.1C73.2999 62.6 72.3999 63.9 71.0999 64.5Z" fill="#BDDAEA"/>
</g>
</g>
</g>
<g id="_Group_3">
<g id="_Path_">
<path id="Vector_31" d="M57.0999 51.2001H12.3999V76.7001H57.0999V51.2001Z" fill="#DBDEDF"/>
</g>
<g id="_Path_2">
<path id="Vector_32" d="M57.0999 47.4H12.3999V51.2H57.0999V47.4Z" fill="#82949D"/>
</g>
<g id="_Path_3">
<path id="Vector_33" d="M49.2999 48.8H20.8999V50.1H49.2999V48.8Z" fill="#DBDEDF"/>
</g>
<g id="_Path_4">
<path id="Vector_34" d="M17.0998 48.8H15.2998V50.1H17.0998V48.8Z" fill="#DDDDDD"/>
</g>
<g id="_Path_5">
<path id="Vector_35" d="M15.0998 48.8H13.2998V50.1H15.0998V48.8Z" fill="#DDDDDD"/>
</g>
<g id="_Group_4">
<g id="_Path_6">
<path id="Vector_36" d="M53.5001 48.7C53.3001 48.7 53.1001 48.5 53.1001 48.3C53.1001 48.1 53.3001 47.9 53.5001 47.9C53.7001 47.9 53.9001 48.1 53.9001 48.3C53.9001 48.5 53.7001 48.7 53.5001 48.7Z" fill="#A1ADB4"/>
</g>
<g id="_Path_7">
<path id="Vector_37" d="M54.7003 48.7C54.5003 48.7 54.3003 48.5 54.3003 48.3C54.3003 48.1 54.5003 47.9 54.7003 47.9C54.9003 47.9 55.1003 48.1 55.1003 48.3C55.1003 48.5 54.9003 48.7 54.7003 48.7Z" fill="#A1ADB4"/>
</g>
<g id="_Path_8">
<path id="Vector_38" d="M56.0001 48.7C55.8001 48.7 55.6001 48.5 55.6001 48.3C55.6001 48.1 55.8001 47.9 56.0001 47.9C56.2001 47.9 56.4001 48.1 56.4001 48.3C56.4001 48.5 56.2001 48.7 56.0001 48.7Z" fill="#A1ADB4"/>
</g>
</g>
</g>
<g id="Group_29">
<g id="Group_30">
<g id="_Path_10">
<path id="Vector_39" d="M33.9996 57.6H32.0996V58.9H33.9996V57.6Z" fill="#82949D"/>
</g>
<g id="_Path_16">
<path id="Vector_40" d="M51.1998 57.6H35.2998V58.9H51.1998V57.6Z" fill="#C0C7CB"/>
</g>
<g id="_Path_17">
<path id="Vector_41" d="M47.5998 59.9H35.2998V61.2H47.5998V59.9Z" fill="#C0C7CB"/>
</g>
<g id="_Path_18">
<path id="Vector_42" d="M40.3998 62.2H35.2998V63.5H40.3998V62.2Z" fill="#C0C7CB"/>
</g>
<g id="_Path_16_1_">
<path id="Vector_43" d="M43.7998 64.5H35.2998V65.8H43.7998V64.5Z" fill="#C0C7CB"/>
</g>
<g id="_Path_17_1_">
<path id="Vector_44" d="M47.8998 66.7999H35.2998V68.0999H47.8998V66.7999Z" fill="#C0C7CB"/>
</g>
<g id="_Path_18_1_">
<path id="Vector_45" d="M48.6998 69.1H35.2998V70.4H48.6998V69.1Z" fill="#C0C7CB"/>
</g>
</g>
<g id="Group_31">
<path id="Vector_46" d="M29.8997 57.6H17.1997V70.3H29.8997V57.6Z" fill="#C0C7CB"/>
</g>
<g id="Group_32">
<g id="Group_33">
<path id="Vector_47" d="M21.901 59.5555L19.0503 60.0876L19.5824 62.9383L22.4331 62.4062L21.901 59.5555Z" fill="#E3A271"/>
</g>
<g id="Group_34">
<path id="Vector_48" d="M21.9994 62.6999L22.6994 60.2999C22.7994 59.9999 23.0994 59.8999 23.3994 59.8999L25.7994 60.5999C26.0994 60.6999 26.1994 60.9999 26.1994 61.2999L25.4994 63.6999C25.3994 63.9999 25.0994 64.0999 24.7994 64.0999L22.3994 63.3999C21.9994 63.2999 21.8994 62.9999 21.9994 62.6999Z" fill="#BDDAEA"/>
</g>
<g id="Group_35">
<g id="Group_36">
<path id="Vector_49" d="M20.5996 67.6C20.5996 67.4 20.6996 67.2 20.7996 67L20.8996 66.9H20.4996C20.3996 66.9 20.2996 66.8 20.2996 66.7C20.2996 66.6 20.3996 66.5 20.4996 66.5H25.2996L24.9996 65.6H24.8996H24.7996H20.4996C20.3996 65.6 20.2996 65.5 20.2996 65.4L19.0996 61.5C19.0996 61.4 19.0996 61.3 19.0996 61.3C19.0996 61.2 19.1996 61.2 19.2996 61.2H25.9996L26.2996 60.4C26.2996 60.3 26.3996 60.3 26.3996 60.2L27.7996 59.6H27.8996C27.9996 59.6 28.0996 59.7 28.0996 59.8C28.0996 59.9 28.0996 60 27.9996 60.1L26.6996 60.6L25.0996 65.2H25.1996C25.1996 65.2 25.2996 65.2 25.2996 65.3L25.6996 66.5C25.6996 66.6 25.6996 66.6 25.6996 66.7C25.6996 66.7 25.5996 66.8 25.4996 66.8H25.0996L25.1996 66.9C25.2996 67.1 25.3996 67.2 25.3996 67.5C25.3996 67.9 24.9996 68.3 24.5996 68.3C24.1996 68.3 23.7996 67.9 23.7996 67.5C23.7996 67.3 23.8996 67.1 23.9996 66.9L24.0996 66.8H21.9996L22.0996 66.9C22.1996 67.1 22.2996 67.2 22.2996 67.5C22.2996 67.9 21.8996 68.3 21.4996 68.3C20.9996 68.4 20.5996 68 20.5996 67.6ZM23.3996 65.2V64.4H21.8996V65.2H23.3996ZM24.6996 65.2L24.9996 64.4H23.8996V65.2H24.6996ZM21.4996 65.2V64.4H20.4996L20.6996 65.2H21.4996ZM21.4996 64V63.1H19.9996L20.2996 64H21.4996ZM23.3996 64V63.1H21.8996V64H23.3996ZM25.0996 64L25.3996 63.1H23.8996V64H25.0996ZM25.5996 62.6L25.8996 61.8H23.8996V62.6H25.5996ZM21.4996 62.6V61.8H19.5996L19.7996 62.6H21.4996ZM23.3996 62.6V61.8H21.8996V62.6H23.3996Z" fill="#70ABD1"/>
</g>
<g id="XMLID_1_">
<g id="Group_37">
<g id="Group_38">
<path id="Vector_50" d="M21.3994 67.1C21.1994 67.1 20.8994 67.3 20.8994 67.6C20.8994 67.8 21.0994 68.1 21.3994 68.1C21.6994 68.1 21.8994 67.9 21.8994 67.6C21.8994 67.3 21.6994 67.1 21.3994 67.1Z" fill="#C0C7CB"/>
</g>
<g id="Group_39">
<path id="Vector_51" d="M24.6992 67.1C24.4992 67.1 24.1992 67.3 24.1992 67.6C24.1992 67.9 24.3992 68.1 24.6992 68.1C24.8992 68.1 25.1992 67.9 25.1992 67.6C25.1992 67.3 24.9992 67.1 24.6992 67.1Z" fill="#C0C7CB"/>
</g>
</g>
</g>
</g>
</g>
</g>
<g id="_Path_9">
<path id="Vector_52" d="M57.0999 75.4H12.3999V76.8H57.0999V75.4Z" fill="#82949D"/>
</g>
<g id="_Group_5">
<g id="_Path_25">
<path id="Vector_53" d="M36.1997 31.2L38.4997 29.9L36.1997 28.6V31.2Z" fill="#A1ADB4"/>
</g>
</g>
<g id="Group_40">
<path id="Vector_54" d="M88 56H38.5V58.3H88V56Z" fill="#67AD68"/>
</g>
<g id="_Group_2-2_1_">
<g id="Group_41">
<path id="Vector_55" d="M88 27.9H38.5V56.3H88V27.9Z" fill="#509ACA"/>
</g>
</g>
<g id="Group_42">
<g id="Group_43">
<g id="Group_44">
<path id="Vector_56" d="M47.9567 32.3614L41.6655 33.5358L42.8399 39.827L49.1311 38.6526L47.9567 32.3614Z" fill="#E3A271"/>
</g>
<g id="Group_45">
<path id="Vector_57" d="M47.9999 39.3L49.5999 34.1C49.7999 33.4 50.4999 33.1 51.0999 33.3L56.2999 34.9C56.9999 35.1 57.2999 35.8 57.0999 36.4L55.4999 41.6C55.2999 42.3 54.5999 42.6 53.9999 42.4L48.7999 40.8C48.1999 40.6 47.8999 40 47.9999 39.3Z" fill="#C0C7CB"/>
</g>
<g id="Group_46">
<g id="Group_47">
<path id="Vector_58" d="M56.6002 37H43.0002C42.8002 37 42.7002 37.2 42.7002 37.4L45.1002 44.7C45.1002 44.8 45.3002 44.9 45.4002 44.9H54.1002C54.2002 44.9 54.3002 44.8 54.4002 44.7L56.9002 37.4C56.9002 37.2 56.8002 37 56.6002 37Z" fill="#509ACA"/>
</g>
<g id="Group_48">
<path id="Vector_59" d="M45.2003 50C45.2003 49.5 45.4003 49.1 45.7003 48.8L45.9003 48.5H44.9003C44.7003 48.5 44.5003 48.3 44.5003 48.1C44.5003 47.8 44.7003 47.7 44.9003 47.7H55.6003L54.9003 45.7H54.8003C54.7003 45.7 54.6003 45.7 54.6003 45.7H45.0003C44.8003 45.7 44.6003 45.5 44.5003 45.3L41.8003 36.7C41.8003 36.5 41.8003 36.4 41.8003 36.2C41.9003 36 42.1003 36 42.2003 36H57.1003L57.8003 34.1C57.8003 33.9 58.0003 33.8 58.1003 33.8L61.2003 32.6C61.2003 32.6 61.3003 32.6 61.4003 32.6C61.6003 32.6 61.8003 32.8 61.9003 32.9C62.0003 33.2 61.9003 33.5 61.6003 33.6L58.7003 34.7L55.2003 44.8H55.3003C55.4003 44.8 55.5003 44.9 55.6003 45.1L56.6003 47.8C56.6003 48 56.6003 48.1 56.6003 48.2C56.6003 48.3 56.4003 48.4 56.2003 48.4H55.4003L55.6003 48.7C55.9003 49.1 56.1003 49.5 56.1003 49.9C56.1003 50.9 55.3003 51.7 54.3003 51.7C53.3003 51.7 52.5003 50.9 52.5003 49.9C52.5003 49.4 52.7003 49 53.0003 48.7L53.2003 48.4H48.3003L48.5003 48.7C48.8003 49.1 49.0003 49.5 49.0003 49.9C49.0003 50.9 48.2003 51.7 47.2003 51.7C45.9003 51.8 45.1003 51 45.2003 50ZM51.3003 44.8V43H48.0003V44.7H51.3003V44.8ZM54.1003 44.8L54.7003 43.1H52.4003V44.8H54.1003ZM47.0003 44.8V43H44.7003L45.2003 44.7H47.0003V44.8ZM47.0003 42V40H43.7003L44.3003 42H47.0003ZM51.3003 42V40H48.0003V42H51.3003ZM55.1003 42L55.8003 40H52.4003V42H55.1003ZM56.1003 39L56.7003 37.2H52.3003V39H56.1003ZM47.0003 39V37.2H42.8003L43.4003 39H47.0003ZM51.3003 39V37.2H48.0003V39H51.3003Z" fill="#70ABD1"/>
</g>
<g id="XMLID_2_">
<g id="Group_49">
<g id="Group_50">
<path id="Vector_60" d="M46.9004 49C46.3004 49 45.9004 49.5 45.9004 50C45.9004 50.6 46.4004 51 46.9004 51C47.5004 51 47.9004 50.5 47.9004 50C47.9004 49.5 47.5004 49 46.9004 49Z" fill="#509ACA"/>
</g>
<g id="Group_51">
<path id="Vector_61" d="M54.1006 49C53.5006 49 53.1006 49.5 53.1006 50C53.1006 50.5 53.6006 51 54.1006 51C54.6006 51 55.1006 50.5 55.1006 50C55.1006 49.5 54.7006 49 54.1006 49Z" fill="#509ACA"/>
</g>
</g>
</g>
</g>
</g>
<g id="Group_52">
<g id="_Path_23_2_">
<path id="Vector_62" d="M70.0001 31.2H64.1001V37H70.0001V31.2Z" fill="#70ABD1"/>
</g>
<g id="_Path_27">
<path id="Vector_63" d="M77.4 31.2H71.5V37H77.4V31.2Z" fill="#70ABD1"/>
</g>
<g id="_Path_28">
<path id="Vector_64" d="M70.0001 39.2H64.1001V45H70.0001V39.2Z" fill="#70ABD1"/>
</g>
<g id="_Path_29">
<path id="Vector_65" d="M77.4 39.2H71.5V45H77.4V39.2Z" fill="#70ABD1"/>
</g>
<g id="_Path_30">
<path id="Vector_66" d="M84.7999 39.2H78.8999V45H84.7999V39.2Z" fill="#70ABD1"/>
</g>
<g id="_Path_30-2">
<path id="Vector_67" d="M84.7999 31.2H78.8999V37H84.7999V31.2Z" fill="#70ABD1"/>
</g>
<g id="_Path_31">
<path id="Vector_68" d="M70.0001 47.1H64.1001V52.9H70.0001V47.1Z" fill="#70ABD1"/>
</g>
<g id="_Path_32">
<path id="Vector_69" d="M77.4 47.1H71.5V52.9H77.4V47.1Z" fill="#70ABD1"/>
</g>
<g id="_Path_33">
<path id="Vector_70" d="M84.7999 47.1H78.8999V52.9H84.7999V47.1Z" fill="#70ABD1"/>
</g>
</g>
</g>
<g id="Group_53">
<path id="Vector_71" d="M87.9 24.1H38.5V28.1H87.9V24.1Z" fill="#BDDAEA"/>
</g>
<g id="Group_54">
<path id="Vector_72" d="M43.0001 27.3L41.8001 26.1L43.0001 25L42.6001 24.6L41.1001 26.1L42.6001 27.6L43.0001 27.3ZM44.3001 27.3L45.5001 26.1L44.3001 25L44.7001 24.6L46.2001 26.1L44.7001 27.6L44.3001 27.3Z" fill="#67AD68"/>
</g>
</g>
</g>
</svg>
