<svg width="50" height="50" viewBox="0 0 50 50" fill="none" xmlns="http://www.w3.org/2000/svg">
<g id="Layer_1">
<path id="Vector" d="M25 10.9375C21.7291 11.0756 18.6292 12.4369 16.3143 14.7518C13.9993 17.0668 12.6381 20.1666 12.5 23.4375C12.5255 26.7515 13.8038 29.9332 16.0781 32.3438C16.8606 32.9674 17.5029 33.7489 17.9632 34.6373C18.4236 35.5257 18.6917 36.5011 18.75 37.5C18.75 37.9144 18.9146 38.3119 19.2076 38.6049C19.5007 38.8979 19.8981 39.0625 20.3125 39.0625H29.6875C30.1019 39.0625 30.4993 38.8979 30.7924 38.6049C31.0854 38.3119 31.25 37.9144 31.25 37.5C31.299 36.5068 31.56 35.5356 32.0155 34.6516C32.4709 33.7677 33.1103 32.9914 33.8906 32.375C35.0632 31.2052 35.9873 29.8105 36.6075 28.2747C37.2277 26.7388 37.5313 25.0936 37.5 23.4375C37.5013 21.742 37.1648 20.0633 36.5103 18.4993C35.8557 16.9352 34.8961 15.5173 33.6875 14.3281C32.5395 13.2111 31.1792 12.3355 29.6871 11.7531C28.1949 11.1708 26.6012 10.8934 25 10.9375ZM31.7812 30.125C30.0111 31.6309 28.7774 33.6705 28.2656 35.9375H21.7344C21.2273 33.6916 20.0243 31.663 18.2969 30.1406C16.6043 28.3159 15.6518 25.9263 15.625 23.4375C15.7356 20.9867 16.7588 18.6659 18.4936 16.9311C20.2283 15.1964 22.5492 14.1731 25 14.0625C26.1888 14.0213 27.3736 14.2216 28.4827 14.6513C29.5919 15.081 30.6024 15.7312 31.4531 16.5625C32.3737 17.4559 33.1065 18.5244 33.6082 19.705C34.11 20.8856 34.3707 22.1547 34.375 23.4375C34.4026 24.6719 34.1833 25.8994 33.7298 27.0478C33.2763 28.1963 32.5979 29.2425 31.7344 30.125H31.7812Z" fill="#4D4D4D"/>
<path id="Vector_2" d="M29.6875 40.625H20.3125C19.8981 40.625 19.5007 40.7896 19.2076 41.0826C18.9146 41.3757 18.75 41.7731 18.75 42.1875C18.75 42.6019 18.9146 42.9993 19.2076 43.2924C19.5007 43.5854 19.8981 43.75 20.3125 43.75H29.6875C30.1019 43.75 30.4993 43.5854 30.7924 43.2924C31.0854 42.9993 31.25 42.6019 31.25 42.1875C31.25 41.7731 31.0854 41.3757 30.7924 41.0826C30.4993 40.7896 30.1019 40.625 29.6875 40.625Z" fill="#4D4D4D"/>
<path id="Vector_3" d="M28.125 45.3125H21.875C21.4606 45.3125 21.0632 45.4771 20.7701 45.7701C20.4771 46.0632 20.3125 46.4606 20.3125 46.875C20.3125 47.2894 20.4771 47.6868 20.7701 47.9799C21.0632 48.2729 21.4606 48.4375 21.875 48.4375H28.125C28.5394 48.4375 28.9368 48.2729 29.2299 47.9799C29.5229 47.6868 29.6875 47.2894 29.6875 46.875C29.6875 46.4606 29.5229 46.0632 29.2299 45.7701C28.9368 45.4771 28.5394 45.3125 28.125 45.3125Z" fill="#4D4D4D"/>
<path id="Vector_4" d="M25 7.8125C25.4144 7.8125 25.8118 7.64788 26.1049 7.35485C26.3979 7.06183 26.5625 6.6644 26.5625 6.25V3.125C26.5625 2.7106 26.3979 2.31317 26.1049 2.02015C25.8118 1.72712 25.4144 1.5625 25 1.5625C24.5856 1.5625 24.1882 1.72712 23.8951 2.02015C23.6021 2.31317 23.4375 2.7106 23.4375 3.125V6.25C23.4375 6.6644 23.6021 7.06183 23.8951 7.35485C24.1882 7.64788 24.5856 7.8125 25 7.8125Z" fill="#4D4D4D"/>
<path id="Vector_5" d="M7.8125 21.875H4.6875C4.2731 21.875 3.87567 22.0396 3.58265 22.3326C3.28962 22.6257 3.125 23.0231 3.125 23.4375C3.125 23.8519 3.28962 24.2493 3.58265 24.5424C3.87567 24.8354 4.2731 25 4.6875 25H7.8125C8.2269 25 8.62433 24.8354 8.91735 24.5424C9.21038 24.2493 9.375 23.8519 9.375 23.4375C9.375 23.0231 9.21038 22.6257 8.91735 22.3326C8.62433 22.0396 8.2269 21.875 7.8125 21.875Z" fill="#4D4D4D"/>
<path id="Vector_6" d="M45.3125 21.875H42.1875C41.7731 21.875 41.3757 22.0396 41.0826 22.3326C40.7896 22.6257 40.625 23.0231 40.625 23.4375C40.625 23.8519 40.7896 24.2493 41.0826 24.5424C41.3757 24.8354 41.7731 25 42.1875 25H45.3125C45.7269 25 46.1243 24.8354 46.4174 24.5424C46.7104 24.2493 46.875 23.8519 46.875 23.4375C46.875 23.0231 46.7104 22.6257 46.4174 22.3326C46.1243 22.0396 45.7269 21.875 45.3125 21.875Z" fill="#4D4D4D"/>
<path id="Vector_7" d="M40.4685 7.96877C40.1758 7.67775 39.7798 7.5144 39.367 7.5144C38.9542 7.5144 38.5582 7.67775 38.2654 7.96877L36.0467 10.1719C35.9002 10.3171 35.784 10.49 35.7046 10.6804C35.6253 10.8708 35.5845 11.075 35.5845 11.2813C35.5845 11.4875 35.6253 11.6918 35.7046 11.8822C35.784 12.0726 35.9002 12.2454 36.0467 12.3906C36.1927 12.5355 36.3658 12.65 36.5562 12.7278C36.7465 12.8055 36.9504 12.845 37.156 12.8438C37.3617 12.845 37.5655 12.8055 37.7559 12.7278C37.9463 12.65 38.1194 12.5355 38.2654 12.3906L40.4685 10.1719C40.7595 9.87914 40.9229 9.48312 40.9229 9.07033C40.9229 8.65754 40.7595 8.26152 40.4685 7.96877Z" fill="#4D4D4D"/>
<path id="Vector_8" d="M13.9534 12.3906C14.0998 12.2454 14.216 12.0725 14.2954 11.8821C14.3747 11.6917 14.4155 11.4875 14.4155 11.2812C14.4155 11.075 14.3747 10.8707 14.2954 10.6803C14.216 10.4899 14.0998 10.3171 13.9534 10.1719L11.7346 7.96873C11.4357 7.71275 11.0512 7.57899 10.658 7.59418C10.2647 7.60937 9.89168 7.77239 9.61341 8.05066C9.33514 8.32894 9.17212 8.70197 9.15693 9.09521C9.14174 9.48846 9.2755 9.87295 9.53148 10.1719L11.7346 12.3906C11.8806 12.5354 12.0538 12.65 12.2441 12.7277C12.4345 12.8055 12.6383 12.8449 12.844 12.8437C13.0496 12.8449 13.2535 12.8055 13.4438 12.7277C13.6342 12.65 13.8074 12.5354 13.9534 12.3906Z" fill="#4D4D4D"/>
</g>
</svg>
