<svg width="38" height="38" viewBox="0 0 38 38" fill="none" xmlns="http://www.w3.org/2000/svg">
<g id="Frame">
<path id="Vector" fill-rule="evenodd" clip-rule="evenodd" d="M9.90257 20.6236C10.931 19.6958 12.0961 19.9899 13.2016 20.8103C13.4637 21.0048 13.7219 21.2289 14.0065 21.4997C14.1431 21.6297 14.2458 21.731 14.458 21.943C14.9399 22.4244 15.3448 22.8291 15.6727 23.157C15.8318 23.3161 18.0017 22.2302 20.1112 20.1228C22.2195 18.0165 23.3061 15.8467 23.1462 15.6869L21.9323 14.4737C21.2636 13.8056 20.9409 13.4518 20.6219 12.9656C19.9588 11.9549 19.7786 10.8524 20.6101 9.92261C22.7817 6.88674 24.1142 5.16878 24.9888 4.32714C26.6945 2.68554 29.32 2.90068 30.8179 4.31782C31.3373 4.80923 31.9607 5.43232 32.6702 6.16825C37.1242 10.6199 34.4137 20.0148 27.2064 27.2151C19.9974 34.4169 10.6015 37.126 6.15688 32.6838C5.34683 31.8863 5.08402 31.6233 4.31869 30.8466C2.8938 29.4005 2.67069 26.6538 4.3201 24.9841C5.1877 24.1058 6.98928 22.7056 9.90257 20.6236ZM24.1713 12.2355L25.3854 13.449C27.4492 15.5116 25.69 19.0243 22.3498 22.3612C19.0074 25.7004 15.496 27.4576 13.4328 25.3943C13.1053 25.0667 12.7008 24.6624 12.2193 24.1814C12.025 23.9873 11.935 23.8985 11.8231 23.792C11.6705 23.6468 11.5364 23.5275 11.4179 23.432C8.84757 25.2771 7.24151 26.5314 6.57354 27.2076C6.22858 27.5568 6.2921 28.3388 6.57495 28.6259C7.32935 29.3915 7.58088 29.6431 8.3876 30.4374C11.246 33.2943 18.831 31.1073 24.9677 24.9766C31.1024 18.8479 33.2905 11.2641 30.4107 8.38549C29.7119 7.66102 29.1212 7.07065 28.6409 6.61624C28.2939 6.28788 27.5777 6.2292 27.1853 6.60691C26.5316 7.23603 25.3307 8.77624 23.4209 11.4357C23.5769 11.6296 23.8032 11.8679 24.1713 12.2355Z" fill="black"/>
</g>
</svg>
