<svg width="19" height="26" viewBox="0 0 19 26" fill="none" xmlns="http://www.w3.org/2000/svg">
<path id="Vector" d="M12.1588 2.07639L15.0566 1.29993C15.3253 1.22676 15.6064 1.21051 15.8817 1.25224C16.1571 1.29396 16.4207 1.39274 16.6557 1.54224C16.8906 1.69174 17.0918 1.88867 17.2463 2.12041C17.4007 2.35215 17.5051 2.6136 17.5527 2.88801C18.0261 5.94686 17.7755 9.07413 16.8209 12.0185C15.9632 14.7497 14.5147 17.2586 12.5782 19.367C10.4958 21.6746 7.89896 23.4593 4.99824 24.5763C4.7376 24.6721 4.45988 24.7124 4.18278 24.6949C3.90567 24.6774 3.63524 24.6024 3.38871 24.4747C3.14218 24.347 2.92495 24.1693 2.75085 23.953C2.57675 23.7367 2.44959 23.4865 2.37747 23.2184L1.60102 20.3206C1.4708 19.8531 1.51503 19.3541 1.72546 18.9168C1.93589 18.4795 2.29817 18.1336 2.74477 17.9436C3.63935 17.5728 4.48911 17.102 5.27785 16.5402C5.58876 16.3176 5.95695 16.1888 6.33882 16.169C6.72069 16.1492 7.10021 16.2394 7.43242 16.4287L8.98785 17.3267C11.0376 15.3037 12.5034 12.7649 13.2305 9.97827L11.6751 9.08024C11.345 8.8872 11.0772 8.60359 10.9033 8.26301C10.7295 7.92243 10.657 7.53916 10.6943 7.15861C10.7865 6.19463 10.7693 5.22331 10.6432 4.26318C10.5836 3.77623 10.7051 3.28439 10.9846 2.88119C11.2641 2.47799 11.682 2.19156 12.1588 2.07639Z" stroke="#2159E7" stroke-width="2" stroke-linecap="round" stroke-linejoin="round"/>
</svg>
