<svg width="20" height="17" viewBox="0 0 20 17" fill="none" xmlns="http://www.w3.org/2000/svg">
<path id="Vector" d="M14.9442 1.02574L7.61319 9.74299L5.04679 6.69249C4.80684 6.40702 4.51253 6.17121 4.18065 5.99851C3.84878 5.8258 3.48584 5.7196 3.11257 5.68596C2.73929 5.65231 2.36299 5.69189 2.00514 5.80242C1.6473 5.91296 1.31492 6.0923 1.02698 6.33018C0.739035 6.56807 0.501175 6.85986 0.326978 7.18888C0.152781 7.51791 0.045657 7.87773 0.0117222 8.24779C-0.0222126 8.61786 0.0177066 8.99094 0.129201 9.34571C0.240695 9.70048 0.42158 10.03 0.661529 10.3155L5.42056 15.9795C5.68805 16.2986 6.02308 16.5554 6.40189 16.7318C6.78071 16.9082 7.19403 16.9997 7.61253 17C8.03104 17.0003 8.44448 16.9092 8.82352 16.7333C9.20257 16.5575 9.53793 16.301 9.80582 15.9823L19.3295 4.65425C19.5715 4.369 19.7544 4.03917 19.8676 3.68369C19.9807 3.32821 20.022 2.95408 19.989 2.58275C19.9559 2.21142 19.8493 1.85022 19.6751 1.51985C19.5009 1.18949 19.2627 0.896476 18.974 0.657622C18.6853 0.418768 18.3519 0.238777 17.9929 0.127975C17.6339 0.0171726 17.2564 -0.0222585 16.882 0.0119433C16.5076 0.0461451 16.1437 0.153306 15.8111 0.327279C15.4786 0.501252 15.184 0.738612 14.9442 1.02574Z" fill="white"/>
</svg>
