<svg width="38" height="38" viewBox="0 0 38 38" fill="none" xmlns="http://www.w3.org/2000/svg">
<g id="Icons">
<path id="Vector" d="M36.1221 14.5919L34.8143 6.09259C34.7568 5.71887 34.5675 5.37805 34.2806 5.13179C33.9937 4.88552 33.6281 4.75007 33.25 4.74992C24.5939 4.74992 20.1574 0.500256 20.1194 0.46384C19.8227 0.168942 19.4214 0.00341797 19.0031 0.00341797C18.5848 0.00341797 18.1835 0.168942 17.8869 0.46384C17.8425 0.500256 13.406 4.74992 4.74997 4.74992C4.37185 4.75007 4.00627 4.88552 3.71935 5.13179C3.43243 5.37805 3.24311 5.71887 3.18563 6.09259L1.8778 14.5919C1.2912 18.4528 1.90522 22.4008 3.63672 25.9011C5.36822 29.4015 8.13355 32.2853 11.5583 34.1619L18.24 37.8036C18.4726 37.9305 18.7334 37.997 18.9984 37.997C19.2634 37.997 19.5242 37.9305 19.7568 37.8036L26.4385 34.1619C29.8638 32.2857 32.6298 29.4022 34.3619 25.9018C36.094 22.4013 36.7084 18.4532 36.1221 14.5919ZM24.9248 31.3753L19 34.6132L13.0751 31.3816C10.2199 29.8186 7.91406 27.4159 6.46972 24.4989C5.02538 21.5819 4.51236 18.2915 5.00013 15.0733L6.10847 7.88334C10.7313 7.77983 15.2188 6.30328 19 3.64159C22.7796 6.30294 27.2653 7.78001 31.8867 7.88492L32.995 15.0733C33.4832 18.291 32.9709 21.581 31.5275 24.498C30.084 27.4149 27.7791 29.8179 24.9248 31.3816V31.3753Z" fill="#232323"/>
<path id="Vector_2" d="M24.214 13.1305L15.8334 21.5111L13.7862 19.4638C13.6401 19.3126 13.4654 19.192 13.2722 19.109C13.0791 19.026 12.8713 18.9823 12.6611 18.9805C12.4508 18.9787 12.2423 19.0187 12.0477 19.0984C11.8532 19.178 11.6764 19.2955 11.5277 19.4442C11.379 19.5929 11.2615 19.7696 11.1819 19.9642C11.1023 20.1588 11.0622 20.3673 11.064 20.5775C11.0659 20.7878 11.1095 20.9955 11.1925 21.1887C11.2755 21.3819 11.3961 21.5566 11.5473 21.7027L14.714 24.8693C15.0109 25.1662 15.4136 25.3329 15.8334 25.3329C16.2533 25.3329 16.6559 25.1662 16.9528 24.8693L26.4528 15.3693C26.7413 15.0707 26.9008 14.6708 26.8972 14.2556C26.8936 13.8405 26.7271 13.4433 26.4336 13.1498C26.14 12.8562 25.7429 12.6897 25.3277 12.6861C24.9126 12.6825 24.5126 12.8421 24.214 13.1305Z" fill="#232323"/>
</g>
</svg>
