<svg width="50" height="50" viewBox="0 0 50 50" fill="none" xmlns="http://www.w3.org/2000/svg">
<g id="svg8">
<g id="layer2">
<path id="rect7095" d="M3.90626 41.4062H16.4062C17.2719 41.4062 17.9687 42.1031 17.9687 42.9688V46.0937C17.9687 46.9594 17.2719 47.6563 16.4062 47.6563H3.90626C3.04063 47.6563 2.34375 46.9594 2.34375 46.0937V42.9688C2.34375 42.1031 3.04063 41.4062 3.90626 41.4062Z" fill="#A8C5F7"/>
<path id="path7097" d="M16.4063 41.4062V44.5313C16.4063 45.3969 15.7094 46.0938 14.8438 46.0938H2.34375C2.34375 46.9594 3.04063 47.6563 3.90626 47.6563H16.4063C17.2719 47.6563 17.9688 46.9594 17.9688 46.0938V42.9687C17.9688 42.1031 17.2719 41.4062 16.4063 41.4062Z" fill="#91B8FB"/>
<path id="rect7099" d="M3.90626 35.1562H16.4062C17.2719 35.1562 17.9687 35.8531 17.9687 36.7188V39.8437C17.9687 40.7094 17.2719 41.4063 16.4062 41.4063H3.90626C3.04063 41.4063 2.34375 40.7094 2.34375 39.8437V36.7188C2.34375 35.8531 3.04063 35.1562 3.90626 35.1562Z" fill="#A8C5F7"/>
<path id="path7101" d="M16.4063 35.1562V38.2813C16.4063 39.1469 15.7094 39.8438 14.8438 39.8438H2.34375C2.34375 40.7094 3.04063 41.4063 3.90626 41.4063H16.4063C17.2719 41.4063 17.9688 40.7094 17.9688 39.8438V36.7187C17.9688 35.8531 17.2719 35.1562 16.4063 35.1562Z" fill="#91B8FB"/>
<path id="rect7091" d="M33.5938 41.4062H46.0937C46.9594 41.4062 47.6562 42.1031 47.6562 42.9688V46.0937C47.6562 46.9594 46.9594 47.6563 46.0937 47.6563H33.5938C32.7281 47.6563 32.0312 46.9594 32.0312 46.0937V42.9688C32.0312 42.1031 32.7281 41.4062 33.5938 41.4062Z" fill="#A8C5F7"/>
<path id="path7093" d="M46.0938 41.4062V44.5313C46.0938 45.3969 45.3969 46.0938 44.5313 46.0938H32.0312C32.0312 46.9594 32.7281 47.6563 33.5938 47.6563H46.0938C46.9594 47.6563 47.6563 46.9594 47.6563 46.0938V42.9687C47.6563 42.1031 46.9594 41.4062 46.0938 41.4062Z" fill="#91B8FB"/>
<path id="rect7087" d="M33.5938 35.1562H46.0937C46.9594 35.1562 47.6562 35.8531 47.6562 36.7188V39.8437C47.6562 40.7094 46.9594 41.4063 46.0937 41.4063H33.5938C32.7281 41.4063 32.0312 40.7094 32.0312 39.8437V36.7188C32.0312 35.8531 32.7281 35.1562 33.5938 35.1562Z" fill="#A8C5F7"/>
<path id="path7089" d="M46.0938 35.1562V38.2813C46.0938 39.1469 45.3969 39.8438 44.5313 39.8438H32.0312C32.0312 40.7094 32.7281 41.4063 33.5938 41.4063H46.0938C46.9594 41.4063 47.6563 40.7094 47.6563 39.8438V36.7187C47.6563 35.8531 46.9594 35.1562 46.0938 35.1562Z" fill="#91B8FB"/>
<path id="path854" d="M33.5938 35.1562C32.7281 35.1562 32.0312 35.8531 32.0312 36.7188V39.8437C32.0312 40.7094 32.7281 41.4062 33.5938 41.4062H35.1563C34.2906 41.4062 33.5938 40.7094 33.5938 39.8437V36.7188C33.5938 35.8531 34.2906 35.1562 35.1563 35.1562H33.5938Z" fill="#F8F8F8"/>
<path id="path7069" d="M12.5 11.7188C9.4797 11.7188 7.03125 14.1672 7.03125 17.1875C7.03125 20.2078 9.4797 22.6563 12.5 22.6563C20.625 22.7085 29.3228 22.6601 36.3449 22.6563C38.9096 22.6563 41.2555 21.1607 42.3462 18.8217C43.4369 16.4828 43.0743 13.7247 41.4154 11.7477C39.8507 9.88296 37.4008 9.0316 35.0357 9.50165L34.7342 9.57366C33.4163 5.32095 29.4522 2.34829 25 2.34375C19.4895 2.34381 14.982 6.73356 14.8361 12.249C14.1115 11.9127 13.3176 11.7188 12.5 11.7188Z" fill="#E2E7FA"/>
<path id="path7057" d="M34.7335 9.57336C33.4156 5.32065 29.4522 2.34829 24.9999 2.34375C24.6417 2.34375 24.2882 2.36412 23.9395 2.40021C29.0163 2.92959 33.893 7.61292 33.2043 13.1241C34.8849 13.1241 35.1485 11.122 34.7335 9.57336Z" fill="#C4D2F0"/>
<path id="path7064" d="M40.1414 10.5835C41.5373 12.5227 41.8044 15.0704 40.7838 17.2592C39.6931 19.5982 37.3472 21.0938 34.7825 21.0938C27.7604 21.0976 19.0625 21.146 10.9376 21.0938C9.82721 21.0938 8.79564 20.7605 7.93311 20.192C8.91112 21.6757 10.5901 22.6562 12.5 22.6562C20.625 22.7085 29.3229 22.6601 36.345 22.6562C38.9097 22.6563 41.2556 21.1607 42.3462 18.8217C43.4369 16.4828 43.0743 13.7247 41.4155 11.7477C41.0383 11.2983 40.6077 10.9109 40.1414 10.5835Z" fill="#C4D2F0"/>
<path id="rect7072" d="M18.75 19.5312H31.25C32.1156 19.5312 32.8125 20.2281 32.8125 21.0937V24.2188C32.8125 25.0844 32.1156 25.7813 31.25 25.7813H18.75C17.8844 25.7813 17.1875 25.0844 17.1875 24.2188V21.0937C17.1875 20.2281 17.8844 19.5312 18.75 19.5312Z" fill="#A8C5F7"/>
<path id="rect7078" d="M31.25 19.5312V22.6563C31.25 23.5219 30.5531 24.2188 29.6875 24.2188H17.1875C17.1875 25.0844 17.8844 25.7813 18.75 25.7813H31.25C32.1156 25.7813 32.8125 25.0844 32.8125 24.2188V21.0938C32.8125 20.2281 32.1156 19.5312 31.25 19.5312Z" fill="#91B8FB"/>
<path id="rect7074" d="M18.75 25.7812H31.25C32.1156 25.7812 32.8125 26.4781 32.8125 27.3438V30.4687C32.8125 31.3344 32.1156 32.0313 31.25 32.0313H18.75C17.8844 32.0313 17.1875 31.3344 17.1875 30.4687V27.3438C17.1875 26.4781 17.8844 25.7812 18.75 25.7812Z" fill="#A8C5F7"/>
<path id="path858" d="M18.75 19.5312C17.8844 19.5312 17.1875 20.2281 17.1875 21.0938V24.2188C17.1875 25.0844 17.8844 25.7812 18.75 25.7812H20.3125C19.4469 25.7812 18.75 25.0844 18.75 24.2188V21.0938C18.75 20.2281 19.4469 19.5312 20.3125 19.5312H18.75Z" fill="#F8F8F8"/>
<path id="path7081" d="M31.25 25.7812V28.9063C31.25 29.7719 30.5531 30.4688 29.6875 30.4688H17.1875C17.1875 31.3344 17.8844 32.0313 18.75 32.0313H31.25C32.1156 32.0313 32.8125 31.3344 32.8125 30.4688V27.3437C32.8125 26.4781 32.1156 25.7812 31.25 25.7812Z" fill="#91B8FB"/>
<path id="path860" d="M18.75 25.7812C17.8844 25.7812 17.1875 26.4781 17.1875 27.3438V30.4688C17.1875 31.3344 17.8844 32.0313 18.75 32.0313H20.3125C19.4469 32.0313 18.75 31.3344 18.75 30.4688V27.3438C18.75 26.4781 19.4469 25.7812 20.3125 25.7812H18.75Z" fill="#F8F8F8"/>
<path id="path849" d="M3.90625 35.1562C3.04062 35.1562 2.34375 35.8531 2.34375 36.7188V39.8438C2.34375 40.7094 3.04062 41.4062 3.90625 41.4062H5.46875C4.60312 41.4062 3.90625 40.7094 3.90625 39.8438V36.7188C3.90625 35.8531 4.60312 35.1562 5.46875 35.1562H3.90625Z" fill="#F8F8F8"/>
<path id="path852" d="M3.90625 41.4062C3.04062 41.4062 2.34375 42.1031 2.34375 42.9688V46.0938C2.34375 46.9594 3.04062 47.6563 3.90625 47.6563H5.46875C4.60312 47.6563 3.90625 46.9594 3.90625 46.0938V42.9688C3.90625 42.1031 4.60312 41.4062 5.46875 41.4062H3.90625Z" fill="#F8F8F8"/>
<path id="path856" d="M33.5938 41.4062C32.7281 41.4062 32.0312 42.1031 32.0312 42.9688V46.0938C32.0312 46.9594 32.7281 47.6563 33.5938 47.6563H35.1563C34.2906 47.6563 33.5938 46.9594 33.5938 46.0938V42.9688C33.5938 42.1031 34.2906 41.4062 35.1563 41.4062H33.5938Z" fill="#F8F8F8"/>
<path id="path864" d="M25 2.34375C19.645 2.34381 15.2496 6.49337 14.8712 11.7889C15.4013 11.8715 15.9164 12.026 16.3986 12.2498C16.538 6.98012 20.6615 2.74805 25.8347 2.38037C25.5587 2.35696 25.2804 2.34404 25 2.34375ZM36.2305 9.38873C36.2511 9.45098 36.2766 9.51055 36.2961 9.57336L36.5982 9.50165C36.7706 9.46738 36.9441 9.45485 37.117 9.43451C36.8235 9.39922 36.5284 9.38439 36.2305 9.38873ZM12.5 11.7188C9.47971 11.7188 7.03125 14.1672 7.03125 17.1875C7.03125 20.2078 9.47971 22.6563 12.5 22.6563C16.8286 22.6841 21.2768 22.6834 25.5905 22.6761C21.7736 22.6808 17.8587 22.6807 14.0625 22.6563C11.0422 22.6563 8.59375 20.2078 8.59375 17.1875C8.59375 14.4361 10.6285 12.1664 13.2736 11.7828C13.0184 11.7448 12.7615 11.7188 12.5 11.7188Z" fill="#F8F8F8"/>
<path id="Icon_27" d="M14.1357 11.1618C13.6082 11.0186 13.0603 10.9406 12.503 10.9406C9.06049 10.9406 6.25151 13.7435 6.25151 17.186C6.25151 20.6285 9.06049 23.4376 12.503 23.4376H16.4077V24.2158C16.4077 24.4913 16.4638 24.7533 16.5527 25H12.4969C10.7792 25 9.37806 26.4088 9.37806 28.1266V34.3781H3.90471C2.61979 34.3781 1.5625 35.4339 1.5625 36.7188V39.8453C1.5625 40.4457 1.80049 40.9901 2.17744 41.4063C1.80061 41.8238 1.5625 42.37 1.5625 42.9703V46.0969C1.5625 47.3818 2.61979 48.4375 3.90471 48.4375H16.4078C17.6927 48.4375 18.7485 47.3818 18.7485 46.0969V42.9703C18.7485 42.37 18.512 41.8238 18.1351 41.4063C18.5119 40.9901 18.7485 40.4457 18.7485 39.8453V36.7188C18.7485 35.4339 17.6927 34.3781 16.4078 34.3781H10.9405V28.1266C10.9405 27.2474 11.6178 26.5641 12.4969 26.5641H16.5512C16.4635 26.8089 16.4077 27.0687 16.4077 27.3423V30.4673C16.4077 31.7522 17.4635 32.8156 18.7484 32.8156H31.2515C32.5364 32.8156 33.5937 31.7522 33.5937 30.4673V27.3423C33.5937 27.0686 33.5364 26.809 33.4487 26.5641H37.4969C38.376 26.5641 39.0609 27.2474 39.0609 28.1266V34.3781H33.5937C32.3088 34.3781 31.2515 35.4339 31.2515 36.7188V39.8453C31.2515 40.4457 31.4895 40.9901 31.8664 41.4063C31.4896 41.8238 31.2515 42.37 31.2515 42.9703V46.0969C31.2515 47.3818 32.3088 48.4375 33.5937 48.4375H46.0967C47.3817 48.4375 48.4374 47.3818 48.4374 46.0969V42.9703C48.4374 42.37 48.2009 41.8238 47.824 41.4063C48.2009 40.9901 48.4374 40.4457 48.4374 39.8453V36.7188C48.4374 35.4339 47.3817 34.3781 46.0967 34.3781H40.6234V28.1266C40.6234 26.4088 39.2146 25 37.4969 25H33.4472C33.5361 24.7532 33.5937 24.4912 33.5937 24.2158V23.4376H36.3448C39.2132 23.4376 41.839 21.7653 43.0572 19.1529C44.2754 16.5404 43.8663 13.4539 42.0135 11.2458C40.3463 9.25893 37.7781 8.31798 35.2508 8.68994C33.6938 4.5256 29.6834 1.56254 24.9999 1.5625C19.4325 1.56246 14.8049 5.74335 14.1357 11.1618ZM34.3841 12.2665C34.3989 12.6959 34.7557 13.0333 35.1852 13.0218C35.6169 13.01 35.958 12.6524 35.9466 12.2207C35.9289 11.5281 35.8392 10.8534 35.698 10.1989C37.6211 9.99136 39.55 10.7376 40.8189 12.2497C42.2838 13.9955 42.6014 16.4236 41.6383 18.489C40.6751 20.5545 38.606 21.875 36.345 21.875H33.5939V21.0968C33.5939 19.8118 32.5365 18.7484 31.2516 18.7484H18.7486C17.4637 18.7484 16.4079 19.8118 16.4079 21.0968V21.875H12.5031C9.90504 21.875 7.8141 19.784 7.8141 17.1859C7.8141 14.5879 9.90504 12.4969 12.5031 12.4969C13.5196 12.4969 14.4957 12.8324 15.3001 13.4323C15.647 13.6915 16.1382 13.6186 16.3957 13.2705C16.6508 12.9246 16.5784 12.4365 16.2339 12.1794C16.0472 12.0401 15.8522 11.9164 15.6525 11.7995C16.0187 6.92658 20.0602 3.12641 25 3.12646C30.096 3.1265 34.2498 7.17225 34.3841 12.2665ZM18.6905 8.69138C18.369 8.98223 18.3457 9.47806 18.6385 9.79763C18.9288 10.1153 19.4214 10.1385 19.7402 9.8496C21.1291 8.58449 22.9699 7.81409 24.9999 7.81409C27.0298 7.81409 28.8706 8.58446 30.2596 9.8496C30.5784 10.1387 31.071 10.1153 31.3613 9.79763C31.6542 9.47806 31.6309 8.98214 31.3093 8.69138C29.6444 7.17488 27.4261 6.25149 24.9999 6.25149C22.5736 6.25149 20.3554 7.17488 18.6905 8.69138ZM20.9167 10.8947C20.5904 11.1767 20.5541 11.6684 20.8358 11.9949C21.1178 12.3212 21.611 12.3575 21.9375 12.0758C22.7596 11.3662 23.8256 10.9406 24.9999 10.9406C26.1743 10.9406 27.2403 11.3662 28.0624 12.0758C28.3889 12.3575 28.8821 12.3212 29.1641 11.9949C29.4458 11.6684 29.4094 11.1767 29.0832 10.8947C27.9888 9.95008 26.5559 9.37802 24.9999 9.37802C23.444 9.37802 22.011 9.95005 20.9167 10.8947ZM25 12.4969C24.3787 12.4969 23.7852 12.7503 23.3459 13.1897C23.043 13.4944 23.043 13.9866 23.3459 14.2913C23.6506 14.5942 24.1414 14.5942 24.4461 14.2913C24.5928 14.1446 24.7925 14.0593 25 14.0593C25.2076 14.0593 25.4071 14.1446 25.5538 14.2913C25.7059 14.4446 25.9148 14.5279 26.1306 14.5217C26.3285 14.5128 26.5162 14.4319 26.6556 14.2913C26.9584 13.9866 26.9584 13.4944 26.6556 13.1897C26.2162 12.7503 25.6213 12.4969 25 12.4969ZM25 15.625C24.5685 15.625 24.2187 15.9747 24.2187 16.4062C24.2187 16.8377 24.5685 17.1875 25 17.1875C25.4314 17.1875 25.7812 16.8377 25.7812 16.4062C25.7812 15.9747 25.4314 15.625 25 15.625ZM18.7485 20.311H22.6593V25H18.7485C18.3021 25 17.9703 24.662 17.9703 24.2157V21.0968C17.9703 20.6505 18.3021 20.311 18.7485 20.311ZM24.2157 20.311H31.2515C31.6978 20.311 32.0297 20.6505 32.0297 21.0968V24.2157C32.0297 24.662 31.6978 25 31.2515 25H24.2157V20.311ZM20.3125 21.875C19.881 21.875 19.5312 22.2248 19.5312 22.6562C19.5312 23.0877 19.881 23.4375 20.3125 23.4375C20.7439 23.4375 21.0937 23.0877 21.0937 22.6562C21.0937 22.2248 20.7439 21.875 20.3125 21.875ZM26.564 21.875C26.1301 21.8732 25.7765 22.2254 25.7782 22.6593C25.7797 23.0909 26.1324 23.4392 26.564 23.4375H29.689C30.1184 23.436 30.4657 23.0886 30.4672 22.6593C30.4689 22.2276 30.1206 21.8764 29.689 21.875H26.564ZM18.7485 26.564H22.6593V31.2515H18.7485C18.3021 31.2515 17.9703 30.9135 17.9703 30.4672V27.3422C17.9703 26.8959 18.3021 26.564 18.7485 26.564ZM24.2157 26.564H31.2515C31.6978 26.564 32.0297 26.8959 32.0297 27.3422V30.4672C32.0297 30.9135 31.6978 31.2515 31.2515 31.2515H24.2157V26.564ZM20.3125 28.125C19.881 28.125 19.5312 28.4747 19.5312 28.9062C19.5312 29.3377 19.881 29.6875 20.3125 29.6875C20.7439 29.6875 21.0937 29.3377 21.0937 28.9062C21.0937 28.4747 20.7439 28.125 20.3125 28.125ZM26.564 28.1265C26.1324 28.1248 25.7796 28.4731 25.7782 28.9047C25.7765 29.3386 26.1301 29.6907 26.564 29.689H29.689C30.1206 29.6875 30.4689 29.3363 30.4672 28.9047C30.4657 28.4753 30.1184 28.128 29.689 28.1265H26.564ZM3.90469 35.9344H7.81399V40.6234H3.90469C3.45838 40.6234 3.12649 40.2916 3.12649 39.8452V36.7187C3.12649 36.2724 3.45838 35.9344 3.90469 35.9344ZM9.37803 35.9344H16.4077C16.8541 35.9344 17.1859 36.2724 17.1859 36.7187V39.8452C17.1859 40.2916 16.8541 40.6234 16.4077 40.6234H9.37803V35.9344ZM33.5937 35.9344H37.4969V40.6234H33.5937C33.1474 40.6234 32.8155 40.2916 32.8155 39.8452V36.7187C32.8155 36.2724 33.1474 35.9344 33.5937 35.9344ZM39.0609 35.9344H46.0968C46.5431 35.9344 46.875 36.2724 46.875 36.7187V39.8452C46.875 40.2916 46.5431 40.6234 46.0968 40.6234H39.0609V35.9344ZM11.7187 37.4969C11.2871 37.4984 10.9388 37.8511 10.9405 38.2827C10.942 38.7121 11.2893 39.0595 11.7187 39.0609H14.8452C15.2746 39.0595 15.622 38.7121 15.6234 38.2827C15.6252 37.8511 15.2769 37.4984 14.8452 37.4969H11.7187ZM41.4078 37.4969C40.9739 37.4952 40.6217 37.8489 40.6235 38.2827C40.6249 38.7144 40.9761 39.0626 41.4078 39.0609H44.5343C44.9636 39.0595 45.311 38.7121 45.3125 38.2827C45.3142 37.8511 44.9659 37.4984 44.5343 37.4969H41.4078ZM5.46873 37.4999C5.03724 37.4999 4.68746 37.8496 4.68746 38.2811C4.68746 38.7126 5.03724 39.0624 5.46873 39.0624C5.90019 39.0624 6.24997 38.7126 6.24997 38.2811C6.24997 37.8496 5.90019 37.4999 5.46873 37.4999ZM35.1562 37.4999C34.7248 37.4999 34.375 37.8496 34.375 38.2811C34.375 38.7126 34.7248 39.0624 35.1562 39.0624C35.5877 39.0624 35.9375 38.7126 35.9375 38.2811C35.9375 37.8496 35.5877 37.4999 35.1562 37.4999ZM7.81399 42.1859V46.875H3.90469C3.45838 46.875 3.12649 46.5431 3.12649 46.0968V42.9703C3.12649 42.5239 3.45838 42.1859 3.90469 42.1859L7.81399 42.1859ZM9.37803 42.1859H16.4077C16.8541 42.1859 17.1859 42.5238 17.1859 42.9701V46.0967C17.1859 46.543 16.8541 46.8749 16.4077 46.8749H9.37803V42.1859ZM37.4969 42.1859V46.875H33.5937C33.1474 46.875 32.8155 46.5431 32.8155 46.0968V42.9703C32.8155 42.5239 33.1474 42.1859 33.5937 42.1859L37.4969 42.1859ZM39.0609 42.1859H46.0968C46.5431 42.1859 46.875 42.5238 46.875 42.9701V46.0967C46.875 46.543 46.5431 46.8749 46.0968 46.8749H39.0609V42.1859ZM11.7187 43.7483C11.2871 43.7498 10.9388 44.1025 10.9405 44.5342C10.942 44.9635 11.2893 45.3109 11.7187 45.3124H14.8452C15.2746 45.3109 15.622 44.9635 15.6234 44.5342C15.6252 44.1025 15.2769 43.7498 14.8452 43.7483H11.7187ZM41.4078 43.7483C40.9739 43.7466 40.6217 44.1003 40.6235 44.5342C40.6249 44.9658 40.9761 45.3141 41.4078 45.3124H44.5343C44.9636 45.3109 45.311 44.9635 45.3125 44.5342C45.3142 44.1025 44.9659 43.7498 44.5343 43.7483H41.4078ZM5.46873 43.7499C5.03724 43.7499 4.68746 44.0997 4.68746 44.5311C4.68746 44.9626 5.03724 45.3124 5.46873 45.3124C5.90019 45.3124 6.24997 44.9626 6.24997 44.5311C6.24997 44.0997 5.90019 43.7499 5.46873 43.7499ZM35.1562 43.7499C34.7248 43.7499 34.375 44.0997 34.375 44.5311C34.375 44.9626 34.7248 45.3124 35.1562 45.3124C35.5877 45.3124 35.9375 44.9626 35.9375 44.5311C35.9375 44.0997 35.5877 43.7499 35.1562 43.7499Z" fill="black"/>
</g>
</g>
</svg>
