<svg width="44" height="41" viewBox="0 0 44 41" fill="none" xmlns="http://www.w3.org/2000/svg">
<g id="Layer_1">
<path id="Vector" d="M9.87146 18.3724C10.0011 18.3724 10.1255 18.3244 10.2172 18.239C10.3089 18.1535 10.3604 18.0376 10.3604 17.9168C10.3604 17.796 10.3089 17.6801 10.2172 17.5946C10.1255 17.5092 10.0011 17.4612 9.87146 17.4612C9.44227 17.4593 9.01769 17.3786 8.62195 17.2238C8.22621 17.069 7.86706 16.8431 7.56502 16.559C7.26297 16.2749 7.02395 15.9381 6.86158 15.5679C6.69921 15.1977 6.61669 14.8013 6.61872 14.4014C6.62075 14.0014 6.7073 13.6058 6.87342 13.2371C7.03954 12.8683 7.28198 12.5336 7.58689 12.2522C7.89181 11.9707 8.25324 11.748 8.65053 11.5967C9.04782 11.4454 9.47321 11.3685 9.90239 11.3704H9.91271C10.0013 11.3745 10.0893 11.3555 10.1669 11.3154C10.2445 11.2754 10.3086 11.2159 10.3518 11.1438C10.3961 11.0726 10.4189 10.9915 10.4179 10.9092C10.4168 10.8269 10.3919 10.7464 10.3458 10.6761C9.86813 9.96211 9.60467 9.14178 9.58291 8.30062C9.56115 7.45945 9.78188 6.62824 10.2221 5.8936C10.6623 5.15897 11.3059 4.54779 12.0859 4.12375C12.8658 3.69972 13.7535 3.47835 14.6565 3.48271C17.4065 3.48271 19.6778 5.57115 19.7225 8.13766C19.7237 8.22206 19.75 8.3045 19.7986 8.37574C19.8472 8.44697 19.9161 8.5042 19.9977 8.54102C20.0792 8.57784 20.1701 8.59279 20.2602 8.5842C20.3503 8.57562 20.4361 8.54383 20.5079 8.4924C21.0717 8.08508 21.7643 7.86319 22.4776 7.86139C23.3448 7.86223 24.1762 8.18361 24.7894 8.755C25.4026 9.32638 25.7475 10.1011 25.7484 10.9092C25.7453 11.3681 25.6298 11.8203 25.4107 12.2313C25.3685 12.3138 25.3538 12.4063 25.3683 12.4967C25.3829 12.5871 25.4261 12.6715 25.4923 12.7389C25.5589 12.8062 25.6457 12.8532 25.7413 12.8737C25.837 12.8943 25.9371 12.8875 26.0286 12.8543C27.7387 12.2313 29.509 13.4733 29.509 15.0748C29.5081 15.7075 29.238 16.3139 28.7579 16.7613C28.2779 17.2086 27.627 17.4603 26.9481 17.4612C26.8184 17.4612 26.694 17.5092 26.6023 17.5946C26.5106 17.6801 26.4591 17.796 26.4591 17.9168C26.4591 18.0376 26.5106 18.1535 26.6023 18.239C26.694 18.3244 26.8184 18.3724 26.9481 18.3724C27.4266 18.372 27.9 18.2811 28.3398 18.1052C28.7795 17.9294 29.1764 17.6723 29.5065 17.3495C29.8365 17.0267 30.0929 16.6449 30.2601 16.2271C30.4273 15.8093 30.5019 15.3643 30.4792 14.9189C30.4566 14.4735 30.3373 14.037 30.1285 13.6359C29.9197 13.2347 29.6258 12.8771 29.2644 12.5848C28.9031 12.2925 28.4819 12.0715 28.0263 11.9351C27.5707 11.7988 27.0902 11.75 26.6138 11.7916C26.6879 11.5031 26.7257 11.2075 26.7264 10.9108C26.7252 9.86108 26.2772 8.85469 25.4807 8.11245C24.6841 7.37021 23.6041 6.95276 22.4776 6.9517C21.8368 6.9503 21.2044 7.08735 20.63 7.35209C20.1814 4.65426 17.6565 2.56982 14.6565 2.56982C13.0518 2.57152 11.5133 3.16627 10.3786 4.22359C9.24396 5.28091 8.6057 6.71445 8.60388 8.20973C8.60587 9.00367 8.79079 9.78797 9.14614 10.5096C8.09817 10.6792 7.15659 11.209 6.50738 11.9941C5.85817 12.7792 5.54854 13.7627 5.63965 14.7502C5.73076 15.7377 6.21599 16.6574 6.99949 17.3278C7.78298 17.9981 8.80778 18.3703 9.87146 18.3708V18.3724Z" fill="black"/>
<path id="Vector_2" d="M15.173 12.4922C15.0433 12.4922 14.9189 12.5402 14.8272 12.6257C14.7355 12.7111 14.684 12.827 14.684 12.9478V19.3445L13.5204 18.2578C13.4774 18.208 13.4235 18.1671 13.3624 18.1379C13.3013 18.1088 13.2343 18.0919 13.1658 18.0884C13.0972 18.085 13.0286 18.095 12.9645 18.1179C12.9004 18.1408 12.8422 18.176 12.7936 18.2212C12.7451 18.2665 12.7073 18.3207 12.6827 18.3805C12.6582 18.4402 12.6474 18.5041 12.6511 18.568C12.6548 18.6319 12.6729 18.6943 12.7042 18.7513C12.7356 18.8082 12.7794 18.8583 12.8329 18.8984L14.8301 20.7595C14.8755 20.8018 14.9294 20.8354 14.9888 20.8583C15.0481 20.8812 15.1117 20.893 15.176 20.893C15.2402 20.893 15.3038 20.8812 15.3632 20.8583C15.4225 20.8354 15.4765 20.8018 15.5219 20.7595L17.5156 18.8984C17.5691 18.8583 17.613 18.8082 17.6443 18.7513C17.6756 18.6943 17.6937 18.6319 17.6974 18.568C17.7011 18.5041 17.6903 18.4402 17.6658 18.3805C17.6412 18.3207 17.6035 18.2665 17.5549 18.2212C17.5064 18.176 17.4481 18.1408 17.384 18.1179C17.3199 18.095 17.2513 18.085 17.1828 18.0884C17.1142 18.0919 17.0472 18.1088 16.9861 18.1379C16.925 18.1671 16.8712 18.208 16.8281 18.2578L15.6645 19.3421V12.9446C15.6642 12.8848 15.6512 12.8257 15.6263 12.7706C15.6014 12.7155 15.5651 12.6655 15.5194 12.6234C15.4738 12.5814 15.4197 12.5482 15.3602 12.5257C15.3008 12.5032 15.2371 12.4918 15.173 12.4922Z" fill="black"/>
<path id="Vector_3" d="M20.9371 20.9005C21.0668 20.9005 21.1911 20.8525 21.2828 20.767C21.3745 20.6816 21.4261 20.5657 21.4261 20.4448V14.0442L22.5905 15.1284C22.6355 15.1708 22.689 15.2045 22.748 15.2274C22.807 15.2504 22.8703 15.2622 22.9343 15.2622C23.0309 15.2621 23.1254 15.2353 23.2057 15.1852C23.286 15.1351 23.3485 15.0639 23.3854 14.9806C23.4222 14.8973 23.4316 14.8057 23.4125 14.7174C23.3934 14.6291 23.3466 14.5481 23.278 14.4846L21.2808 12.6228C21.1893 12.5385 21.0658 12.4912 20.9371 12.4912C20.8084 12.4912 20.6849 12.5385 20.5933 12.6228L18.5953 14.4846C18.5197 14.5722 18.4815 14.6826 18.488 14.7948C18.4945 14.907 18.5453 15.013 18.6305 15.0924C18.7158 15.1718 18.8295 15.2191 18.9499 15.2252C19.0703 15.2312 19.1888 15.1957 19.2828 15.1252L20.4455 14.0418V20.4376C20.4445 20.4983 20.4564 20.5585 20.4807 20.6148C20.505 20.671 20.5411 20.7222 20.5869 20.7653C20.6327 20.8085 20.6872 20.8426 20.7473 20.8658C20.8075 20.889 20.872 20.9008 20.9371 20.9005Z" fill="black"/>
<path id="Vector_4" d="M40.8032 36.0087L39.2366 31.0703C39.218 31.0115 39.187 30.9568 39.1452 30.9094C39.1034 30.8621 39.0517 30.8231 38.9934 30.7948C38.9346 30.7669 38.8704 30.7502 38.8046 30.7457C38.7388 30.7411 38.6727 30.7489 38.6101 30.7684L36.7702 31.3522L35.9108 28.756C35.5382 27.6311 34.8763 26.6081 33.9828 25.7757C33.0893 24.9434 31.9911 24.327 30.7838 23.9802L25.1703 22.3634C23.572 21.8949 21.8609 21.8763 20.2513 22.3098C17.9885 22.9272 15.1165 24.0763 13.9606 26.0382L5.94181 24.2204C5.40371 24.1028 4.83794 24.1753 4.3538 24.4237C3.86966 24.6721 3.50152 25.079 3.3205 25.5656C3.13948 26.0522 3.15844 26.584 3.3737 27.0584C3.58897 27.5327 3.98527 27.9159 4.48603 28.1338L16.122 33.0923C16.7586 33.364 17.464 33.4646 18.1587 33.383L28.5322 32.1818L29.1174 33.6504C29.1402 33.689 29.1692 33.7241 29.2034 33.7545L26.6252 34.5729C26.5056 34.6107 26.4064 34.6902 26.3484 34.7947C26.2904 34.8993 26.2781 35.0207 26.3142 35.1335L27.2595 38.1076C27.2889 38.2021 27.3505 38.2851 27.435 38.3442C27.5194 38.4033 27.6222 38.4352 27.7278 38.4351C27.7746 38.4348 27.8212 38.4286 27.8662 38.4167C27.9905 38.3824 28.0951 38.3034 28.157 38.1973C28.2189 38.0911 28.233 37.9664 28.1962 37.8505L27.3875 35.2952L38.4477 31.7862L39.8708 36.2706C39.9076 36.3863 39.9922 36.4837 40.1061 36.5413C40.22 36.5989 40.3537 36.612 40.4779 36.5777C40.6022 36.5434 40.7067 36.4645 40.7685 36.3584C40.8303 36.2523 40.8443 36.1277 40.8075 36.0119L40.8032 36.0087ZM30.0318 33.3285L29.3108 31.5211C29.272 31.4258 29.2003 31.3452 29.1069 31.292C29.0136 31.2388 28.9039 31.216 28.7952 31.2273L18.0349 32.4757C17.5201 32.5361 16.9974 32.4612 16.5259 32.2595L4.88993 27.3018C4.60547 27.1812 4.37955 26.9661 4.25638 26.6984C4.1332 26.4308 4.12166 26.13 4.22399 25.8548C4.32633 25.5797 4.53518 25.35 4.80966 25.2108C5.08415 25.0715 5.40452 25.0328 5.70806 25.1021L13.6642 26.9062C13.6558 27.14 13.7019 27.3726 13.7993 27.5881C13.8967 27.8036 14.043 27.9969 14.2282 28.1547C14.4135 28.3125 14.6332 28.4309 14.8723 28.502C15.1114 28.573 15.3642 28.595 15.6132 28.5663L26.2437 27.3867C26.3077 27.3799 26.3696 27.3613 26.4259 27.3321C26.4821 27.3029 26.5317 27.2636 26.5716 27.2165C26.6115 27.1694 26.6411 27.1154 26.6585 27.0576C26.676 26.9998 26.681 26.9394 26.6734 26.8798C26.657 26.7603 26.5911 26.6515 26.4898 26.5767C26.3884 26.5019 26.2597 26.467 26.1311 26.4794L15.5015 27.6566C15.3639 27.6714 15.2246 27.6517 15.0978 27.5996C14.9711 27.5475 14.8616 27.4648 14.7806 27.3601C14.6996 27.2555 14.6501 27.1325 14.637 27.004C14.624 26.8755 14.648 26.7461 14.7066 26.6292C15.4156 25.2326 17.4824 24.0066 20.5254 23.1762C21.9512 22.7918 23.4673 22.8093 24.8824 23.2267L30.495 24.8426C31.5508 25.1462 32.511 25.6856 33.2921 26.4138C34.0732 27.142 34.6515 28.0371 34.9767 29.0211L35.8463 31.6421L30.0593 33.4783C30.0596 33.4272 30.0503 33.3765 30.0318 33.3285Z" fill="black"/>
</g>
</svg>
