<svg width="32" height="32" viewBox="0 0 32 32" fill="none" xmlns="http://www.w3.org/2000/svg">
<g id="Frame">
<g id="Layer 25">
<path id="Vector" d="M24 22C23.7663 22.0005 23.5399 21.9191 23.36 21.77L18.84 18H17C14.8783 18 12.8434 17.1571 11.3431 15.6569C9.84285 14.1566 9 12.1217 9 10C9 7.87827 9.84285 5.84344 11.3431 4.34315C12.8434 2.84285 14.8783 2 17 2H23C24.9431 2.00555 26.8178 2.71814 28.274 4.00472C29.7303 5.2913 30.6684 7.06391 30.9133 8.99156C31.1583 10.9192 30.6933 12.8701 29.6051 14.48C28.5169 16.0899 26.88 17.2487 25 17.74V21C25.0005 21.1913 24.9461 21.3787 24.8433 21.5399C24.7405 21.7012 24.5936 21.8297 24.42 21.91C24.2882 21.9701 24.1449 22.0008 24 22ZM17 4C15.4087 4 13.8826 4.63214 12.7574 5.75736C11.6321 6.88258 11 8.4087 11 10C11 11.5913 11.6321 13.1174 12.7574 14.2426C13.8826 15.3679 15.4087 16 17 16H19.2C19.4337 15.9995 19.6601 16.0809 19.84 16.23L23 18.86V16.92C22.9976 16.6773 23.0835 16.4421 23.2418 16.2581C23.4 16.0741 23.6197 15.954 23.86 15.92C25.3378 15.6778 26.6716 14.8918 27.5994 13.7163C28.5272 12.5408 28.9819 11.0609 28.8741 9.56722C28.7663 8.07359 28.1039 6.67425 27.017 5.64412C25.9301 4.61399 24.4973 4.02754 23 4H17Z" fill="white"/>
<path id="Vector_2" d="M21 9H19V11H21V9Z" fill="white"/>
<path id="Vector_3" d="M16 9H14V11H16V9Z" fill="white"/>
<path id="Vector_4" d="M26 9H24V11H26V9Z" fill="white"/>
<path id="Vector_5" d="M8.00007 30.0003C7.8552 30.0011 7.7119 29.9704 7.58007 29.9103C7.40649 29.83 7.25959 29.7016 7.15679 29.5403C7.05399 29.379 6.9996 29.1916 7.00007 29.0003V25.7403C5.40894 25.3164 3.98738 24.4119 2.9294 23.1501C1.87141 21.8883 1.22855 20.3308 1.08855 18.6902C0.948542 17.0495 1.31822 15.4056 2.14712 13.9828C2.97602 12.56 4.22377 11.4277 5.72007 10.7403C5.84084 10.6767 5.97336 10.6384 6.10947 10.628C6.24559 10.6175 6.3824 10.635 6.51149 10.6794C6.64059 10.7238 6.75922 10.7941 6.86009 10.8861C6.96096 10.9781 7.04193 11.0898 7.09801 11.2142C7.15408 11.3387 7.18408 11.4733 7.18616 11.6098C7.18823 11.7463 7.16233 11.8818 7.11006 12.0079C7.05779 12.134 6.98026 12.2481 6.88223 12.3431C6.7842 12.4381 6.66775 12.512 6.54007 12.5603C5.36 13.0954 4.38484 13.9981 3.76042 15.1334C3.136 16.2687 2.89588 17.5757 3.07597 18.8588C3.25606 20.1419 3.84668 21.3323 4.7595 22.2519C5.67232 23.1714 6.8583 23.7708 8.14007 23.9603C8.38035 23.9943 8.60008 24.1145 8.7583 24.2984C8.91653 24.4824 9.00246 24.7177 9.00007 24.9603V26.9003L12.1601 24.2703C12.3343 24.1067 12.5613 24.011 12.8001 24.0003H15.0001C15.8009 24.0018 16.5938 23.8414 17.331 23.5286C18.0682 23.2158 18.7346 22.7572 19.2901 22.1803C19.4757 21.9894 19.7296 21.88 19.9959 21.8762C20.1278 21.8744 20.2587 21.8985 20.3813 21.9473C20.5038 21.996 20.6155 22.0684 20.7101 22.1603C20.8046 22.2522 20.8801 22.3619 20.9323 22.483C20.9845 22.6041 21.0123 22.7343 21.0142 22.8662C21.016 22.998 20.9919 23.129 20.9431 23.2515C20.8944 23.374 20.822 23.4858 20.7301 23.5803C19.9849 24.3458 19.094 24.9544 18.1099 25.37C17.1258 25.7856 16.0684 26 15.0001 26.0003H13.1601L8.64007 29.7703C8.46016 29.9194 8.23372 30.0008 8.00007 30.0003Z" fill="white"/>
</g>
</g>
</svg>
