<svg width="27" height="19" viewBox="0 0 27 19" fill="none" xmlns="http://www.w3.org/2000/svg">
<path id="Vector" d="M25.3125 0H1.6875C1.23995 0 0.810725 0.176628 0.494257 0.491027C0.17779 0.805426 0 1.23184 0 1.67647L0 17.3235C0 17.7682 0.17779 18.1946 0.494257 18.509C0.810725 18.8234 1.23995 19 1.6875 19H25.3125C25.7601 19 26.1893 18.8234 26.5057 18.509C26.8222 18.1946 27 17.7682 27 17.3235V1.67647C27 1.23184 26.8222 0.805426 26.5057 0.491027C26.1893 0.176628 25.7601 0 25.3125 0ZM24.9525 1.11765L13.5 9.91353L2.0475 1.11765H24.9525ZM1.125 17.0944V1.82176L9.79313 8.47735L1.125 17.0944ZM1.91813 17.8824L10.6875 9.17029L13.1512 11.0647C13.2496 11.1399 13.3702 11.1807 13.4944 11.1807C13.6185 11.1807 13.7391 11.1399 13.8375 11.0647L16.3125 9.17029L25.0819 17.8824H1.91813ZM25.875 17.0944L17.2069 8.47735L25.875 1.82176V17.0944Z" fill="#2159E7"/>
</svg>
