<svg width="50" height="50" viewBox="0 0 50 50" fill="none" xmlns="http://www.w3.org/2000/svg">
<g id="Layer_1">
<path id="Vector" d="M46.3808 37.9781C46.4042 37.9059 46.4202 37.8296 46.4202 37.7494V11.2791C46.4202 11.1984 46.4042 11.1217 46.3803 11.0489C46.3768 11.0389 46.3748 11.029 46.3709 11.019C46.339 10.9338 46.2921 10.8571 46.2333 10.7898C46.2294 10.7853 46.2289 10.7799 46.2249 10.7754C46.2224 10.7729 46.2194 10.7719 46.2169 10.7694C46.1541 10.7026 46.0799 10.6488 45.9967 10.6085C45.9902 10.6055 45.9852 10.6015 45.9787 10.5985C45.9 10.5631 45.8143 10.5432 45.7242 10.5372C45.7152 10.5367 45.7067 10.5347 45.6977 10.5347C45.6893 10.5342 45.6818 10.5322 45.6733 10.5322H4.21758C4.20911 10.5322 4.20114 10.5342 4.19267 10.5347C4.1847 10.5352 4.17672 10.5367 4.16875 10.5372C4.07757 10.5432 3.99038 10.5636 3.91067 10.5995C3.90568 10.6015 3.9017 10.605 3.89671 10.607C3.81201 10.6473 3.73678 10.7021 3.67351 10.7699C3.67101 10.7724 3.66802 10.7729 3.66553 10.7754C3.66155 10.7794 3.66105 10.7848 3.65706 10.7893C3.59827 10.8566 3.55094 10.9338 3.51905 11.019C3.51507 11.029 3.51307 11.0389 3.50959 11.0494C3.48567 11.1222 3.46973 11.1989 3.46973 11.2796V37.7504C3.46973 37.8321 3.48617 37.9099 3.51058 37.9836C3.51407 37.9936 3.51606 38.003 3.51955 38.013C3.55194 38.0987 3.59977 38.1759 3.65906 38.2432C3.66254 38.2472 3.66354 38.2522 3.66703 38.2561C3.67002 38.2596 3.674 38.2616 3.67749 38.2651C3.7019 38.2905 3.72881 38.3129 3.75671 38.3349C3.76917 38.3443 3.78013 38.3558 3.79308 38.3648C3.82597 38.3877 3.86134 38.4061 3.89771 38.423C3.90668 38.427 3.91465 38.4335 3.92362 38.437C4.0138 38.4754 4.11295 38.4973 4.21708 38.4973H45.6723C45.7765 38.4973 45.8756 38.4759 45.9658 38.437C45.9797 38.431 45.9927 38.4221 46.0061 38.4151C46.037 38.3996 46.0679 38.3837 46.0963 38.3643C46.1113 38.3538 46.1247 38.3403 46.1392 38.3289C46.1646 38.3085 46.1895 38.288 46.2114 38.2646C46.2154 38.2606 46.2199 38.2576 46.2239 38.2536C46.2279 38.2492 46.2289 38.2432 46.2328 38.2387C46.2911 38.1719 46.338 38.0952 46.3699 38.0105C46.3748 37.9995 46.3773 37.9891 46.3808 37.9781ZM4.96493 12.9741L17.5439 24.4642L4.96493 36.0459V12.9741ZM30.7467 23.9012C30.6948 23.935 30.64 23.9634 30.5967 24.0113C30.5803 24.0292 30.5748 24.0526 30.5603 24.0716L24.9452 29.2005L6.14376 12.0265H43.7467L30.7467 23.9012ZM18.652 25.4761L24.441 30.764C24.584 30.8946 24.7643 30.9598 24.9452 30.9598C25.1261 30.9598 25.3064 30.8946 25.4489 30.764L31.1662 25.5419L43.7432 37.0026H6.1328L18.652 25.4761ZM32.2748 24.5295L44.9255 12.9741V36.0579L32.2748 24.5295Z" fill="black"/>
</g>
</svg>
