<svg width="50" height="50" viewBox="0 0 50 50" fill="none" xmlns="http://www.w3.org/2000/svg">
<g id="Layer_1">
<path id="Vector" d="M10 39H4V50H10V39Z" fill="black"/>
<path id="Vector_2" d="M22 35H16V50H22V35Z" fill="black"/>
<path id="Vector_3" d="M34 31H27V50H34V31Z" fill="black"/>
<path id="Vector_4" d="M45 25H39V50H45V25Z" fill="black"/>
<path id="Vector_5" d="M33.1154 12.9417C33.0659 12.8503 32.9987 12.7697 32.9177 12.7046C32.8366 12.6395 32.7435 12.5912 32.6435 12.5625L27.1748 11L26.7453 12.503L30.5738 13.5969L7 29.0672L7.85755 30.3733L31.0445 15.1569L29.7592 19.3343L31.2523 19.7936L33.1753 13.5436C33.2059 13.4444 33.2164 13.34 33.2062 13.2366C33.1959 13.1332 33.165 13.033 33.1154 12.9417Z" fill="black"/>
</g>
</svg>
