<svg width="20" height="20" viewBox="0 0 20 20" fill="none" xmlns="http://www.w3.org/2000/svg">
<g id="Layer_1" clip-path="url(#clip0_1_3815)">
<g id="Group">
<path id="Vector" d="M10.6282 8.42296C9.80378 8.05976 8.78778 8.49076 8.43638 9.30416C8.20698 9.83516 8.20458 10.3686 8.39198 10.8082C8.62718 11.36 9.16118 11.7638 9.92018 11.8304C10.7918 11.9066 11.539 11.289 11.7398 10.4546C11.9272 9.67456 11.3464 8.73956 10.6282 8.42296Z" fill="white"/>
<path id="Vector_2" d="M11.8362 5.59225C10.441 5.54325 9.04703 5.60705 7.65123 5.64465C5.85823 5.69265 5.50303 7.72445 5.54083 9.29925C5.54703 9.55845 5.54163 9.82365 5.53263 10.0917C5.49163 11.3377 5.52563 13.5297 6.70943 14.1723C7.19603 14.4367 7.78083 14.4453 8.31943 14.4253C8.96683 14.4009 9.60903 14.3987 10.2564 14.4317C11.1606 14.4776 12.055 14.5132 12.9464 14.3012C14.1826 14.0069 14.3952 13.3935 14.4828 12.2935C14.5208 11.8131 14.4822 11.2341 14.4862 10.6393C14.4944 9.34325 14.7808 7.05365 13.6564 6.08585C13.1636 5.66225 12.4558 5.61445 11.8362 5.59225ZM11.4764 12.4141C10.0008 13.4709 7.82583 12.6037 7.32463 10.9157C7.29063 10.8015 7.26423 10.6837 7.24643 10.5621C7.11883 9.69485 7.47863 8.29325 8.33863 7.75925C10.0542 6.69385 11.479 7.47525 12.0896 8.20305C12.4182 8.59505 12.6616 9.14925 12.746 9.65945C12.9196 10.7105 12.3176 11.8113 11.4764 12.4141ZM13.0544 7.86005C12.6712 7.97745 12.097 7.57065 12.3706 6.88945C12.5144 6.53185 12.8754 6.43525 13.3054 6.66685C13.6434 6.84905 13.6956 7.66405 13.0544 7.86005Z" fill="white"/>
<path id="Vector_3" d="M10 0.768066C4.90121 0.768066 0.768005 4.90127 0.768005 10.0001C0.768005 15.0989 4.90121 19.2321 10 19.2321C15.0988 19.2321 19.232 15.0989 19.232 10.0001C19.232 4.90127 15.0988 0.768066 10 0.768066ZM15.4154 10.0345C15.4298 10.7333 15.3864 11.4315 15.4058 12.1311C15.441 13.3979 14.984 14.6191 13.705 15.1195C12.1538 15.7263 10.2626 15.3925 8.63641 15.3925C7.93221 15.3925 7.20841 15.4487 6.53261 15.2483C6.01561 15.0947 5.68221 14.8023 5.32401 14.4011C5.16281 14.2207 5.05761 14.0399 4.97141 13.8191C4.55521 12.7513 4.63521 11.7711 4.58901 10.6475C4.56241 10.0055 4.57421 9.36207 4.58021 8.71927C4.58861 7.84087 4.58241 7.05507 4.90561 6.22347C5.23201 5.38307 6.35141 4.72047 7.21941 4.66347C8.99961 4.54707 10.8744 4.39247 12.644 4.67687C13.3418 4.78907 14.077 5.01867 14.5786 5.54027C15.2322 6.21947 15.3916 7.18987 15.4214 8.16527C15.4414 8.81427 15.4038 9.46527 15.4154 10.0345Z" fill="white"/>
</g>
</g>
<defs>
<clipPath id="clip0_1_3815">
<rect width="20" height="20" fill="white"/>
</clipPath>
</defs>
</svg>
