<svg width="20" height="20" viewBox="0 0 20 20" fill="none" xmlns="http://www.w3.org/2000/svg">
<path id="Vector" fill-rule="evenodd" clip-rule="evenodd" d="M10 20C4.47715 20 0 15.5229 0 10C0 4.47715 4.47715 0 10 0C15.5229 0 20 4.47715 20 10C20 15.5229 15.5229 20 10 20ZM5.28215 15.2731H7.62047V7.91691H5.28215V15.2731ZM6.45102 4.76562C5.7791 4.76562 5.23438 5.3116 5.23438 5.98508C5.23438 6.65859 5.7791 7.20457 6.45102 7.20457C7.12293 7.20457 7.66766 6.65859 7.66766 5.98508C7.66766 5.3116 7.12293 4.76562 6.45102 4.76562ZM16.0868 9.69535C16.0714 9.44797 15.365 7.75758 13.7485 7.75523C12.1777 7.75301 11.2489 8.72531 11.2489 8.72531V7.99777H9.10656L9.07184 15.1923H11.4102C11.4102 15.1923 11.4209 10.805 11.4102 10.6654C11.3947 10.4644 11.7773 9.83418 12.6196 9.85703C13.462 9.87984 13.8291 10.4454 13.8291 10.5846C13.8291 10.7237 13.8291 15.2731 13.8291 15.2731H16.0868C16.0868 15.2731 16.1022 9.94273 16.0868 9.69535Z" fill="white"/>
</svg>
