<svg width="24" height="24" viewBox="0 0 24 24" fill="none" xmlns="http://www.w3.org/2000/svg">
<g id="Frame" clip-path="url(#clip0_1_3527)">
<rect width="24" height="24" fill="#2159E7"/>
<g id="_x35_6-linkedin">
<g id="Group">
<g id="Group_2">
<path id="Vector" d="M5.81774 7.79443H0.81543V23.2149H5.81774V7.79443Z" fill="white"/>
<path id="Vector_2" d="M19.4432 7.97528C19.3901 7.95864 19.3398 7.94045 19.284 7.92475C19.2166 7.90942 19.1498 7.89662 19.0812 7.8857C18.8158 7.83231 18.5245 7.79448 18.1836 7.79448C15.2675 7.79448 13.4175 9.92129 12.8083 10.7426V7.79443H7.80591V23.2149H12.8082V14.8038C12.8082 14.8038 16.5884 9.52436 18.1836 13.4017V23.2149H23.1846V12.809C23.1846 10.4789 21.592 8.5374 19.4432 7.97528Z" fill="white"/>
<path id="Vector_3" d="M5.709 3.23836C5.709 4.59347 4.61339 5.69166 3.26236 5.69166C1.91124 5.69166 0.815674 4.59342 0.815674 3.23836C0.815674 1.88353 1.91124 0.785156 3.26236 0.785156C4.61339 0.785156 5.709 1.88353 5.709 3.23836Z" fill="white"/>
</g>
</g>
</g>
</g>
<defs>
<clipPath id="clip0_1_3527">
<rect width="24" height="24" fill="white"/>
</clipPath>
</defs>
</svg>
