<svg width="22" height="22" viewBox="0 0 22 22" fill="none" xmlns="http://www.w3.org/2000/svg">
<g id="Layer_1" clip-path="url(#clip0_1_3495)">
<g id="Group">
<path id="Vector" d="M19.4261 13.7593C19.3149 13.5 19.0557 13.3148 18.7594 13.2408C18.6483 12.7593 18.5001 12.5371 18.5001 12.5C18.5372 12.4259 18.6112 12.3889 18.6112 12.3519C19.0557 11.8334 18.7594 11.0556 18.0187 10.8704C17.6112 10.463 17.2409 10.2778 16.9075 10.1296C16.6112 9.9815 16.7224 10.0556 16.4631 9.90742C16.389 9.53706 16.352 8.72224 16.2409 8.12965C16.1298 7.61113 15.9075 7.20372 15.6112 6.9815C15.4631 6.6852 15.3149 6.42594 15.0927 6.20372C16.1298 4.64817 16.389 3.09261 15.6483 2.2778C15.3149 1.90743 14.8335 1.75928 14.2409 1.75928C13.389 1.75928 12.389 2.09261 11.352 2.72224C11.352 2.72224 10.6853 2.16668 10.6483 2.16668C7.75939 -0.0925745 -0.425792 9.94446 2.4631 12.1296L3.20384 12.6852C2.72236 13.9815 3.38902 15.5371 4.75939 16.0185C5.05569 16.1296 5.38902 16.1667 5.72236 16.1667C5.72236 16.1667 7.90754 20.1667 12.5372 20.1667C17.8705 20.1667 19.2409 14.9445 19.2409 14.9074C19.2038 14.9445 19.6483 14.2778 19.4261 13.7593ZM2.64828 11.463C2.09273 10.463 3.09273 8.46298 3.83347 7.2778C5.61125 4.42594 8.61125 2.16668 9.98162 2.50002L10.352 2.35187C10.352 2.35187 11.352 3.20372 11.389 3.20372C12.0927 2.79631 12.9816 2.35187 13.7964 2.2778C13.2779 2.38891 12.6853 2.64817 11.9446 3.09261C11.9446 3.09261 10.2038 4.2778 9.1668 5.31483C8.61125 5.87039 6.31495 8.64817 6.31495 8.61113C6.72236 7.83335 7.01865 7.42594 7.68532 6.61113C8.05569 6.12965 8.4631 5.6852 8.8705 5.24076C9.05569 5.05557 9.24088 4.87039 9.4631 4.6852C9.61125 4.57409 9.72236 4.42594 9.8705 4.31483C9.94458 4.2778 9.98162 4.20372 10.0557 4.16668L8.72236 3.05557L8.79643 3.53706L9.75939 4.38891C9.75939 4.38891 8.90754 4.9815 8.4631 5.35187C6.72236 6.83335 5.05569 9.09261 4.42606 11.2778H4.4631C4.1668 11.463 3.83347 11.7222 3.57421 12.0926C3.4631 12.1296 2.75939 11.6482 2.64828 11.463ZM5.50013 15.5741C4.4631 15.5741 3.64828 14.6852 3.64828 13.6111C3.64828 12.5371 4.50013 11.6482 5.50013 11.6482C5.75939 11.6482 6.01865 11.7222 6.24088 11.7963C6.24088 11.7963 6.64828 11.9815 6.75939 12.9445C6.8705 12.6482 6.94458 12.3889 6.94458 12.3889C7.09273 12.7963 7.12976 13.2408 7.12976 13.6482C7.24088 13.5 7.35199 13.2408 7.35199 13.2408C7.57421 14.5 6.68532 15.5741 5.50013 15.5741ZM7.79643 8.64817C7.79643 8.64817 8.61125 7.12965 10.352 6.09261C10.2038 6.05557 9.90754 6.12965 9.83347 6.12965C10.1668 5.87039 10.7594 5.6852 11.1668 5.57409C11.0557 5.50002 10.7594 5.46298 10.6112 5.46298C10.5742 5.46298 10.5742 5.46298 10.5372 5.46298C10.9075 5.24076 11.6483 5.12965 12.2779 5.24076C12.2038 5.12965 12.0187 5.05557 11.8705 5.01854H11.7964H11.8335C12.2409 4.94446 12.6853 5.01854 13.0557 5.16668C13.0187 5.05557 12.9075 4.94446 12.8335 4.87039L12.7964 4.83335C13.1668 4.90743 13.5372 5.09261 13.8335 5.2778C13.7964 5.20372 13.7224 5.09261 13.6483 5.01854C14.0187 5.12965 14.4261 5.38891 14.6112 5.75928V5.79631C13.9075 5.2778 11.9075 5.42594 9.90754 6.72224C9.01865 7.31483 8.31495 7.94446 7.79643 8.64817ZM18.6853 14.6852C18.6483 14.7222 18.4261 16.0926 16.9446 17.2408C15.1298 18.6852 12.7224 18.5371 11.7964 17.7222C11.3149 17.2778 11.0927 16.6111 11.0927 16.6111C11.0927 16.6111 11.0557 16.9815 11.0187 17.1296C10.6483 16.5 10.6853 15.7593 10.6853 15.7593C10.6853 15.7593 10.5001 16.1296 10.389 16.3148C10.1298 15.6111 10.2409 14.9074 10.2409 14.9074L10.0187 15.2408C10.0187 15.2408 9.90754 14.463 10.1668 13.8334C10.4261 13.1296 10.9446 12.6482 11.0557 12.5741C10.6853 12.463 10.2409 12.0926 10.2409 12.0926C10.2409 12.0926 10.4261 12.0926 10.5372 12.0926C10.5372 12.0926 9.75939 11.5371 9.61125 10.6852C9.72236 10.8334 9.94458 10.9815 9.94458 10.9815C9.87051 10.7593 9.83347 10.2778 9.90754 9.75928C10.0557 8.83335 10.8335 8.20372 11.6853 8.20372C12.6112 8.20372 13.2409 8.38891 14.0187 7.6852C14.1668 7.53706 14.3149 7.38891 14.5372 7.35187C14.5742 7.35187 14.6112 7.31483 14.7594 7.31483C14.8705 7.31483 15.0187 7.35187 15.1298 7.42594C15.5372 7.6852 15.6483 8.35187 15.6853 8.83335C15.8705 10.6111 15.7964 10.3148 16.5001 10.6852C16.8335 10.8704 17.2409 11.0185 17.6853 11.5C18.0557 11.5 18.2409 11.7963 18.0927 12.0185C16.8335 13.5 15.0927 14.2037 13.1668 14.2778C13.0927 14.2778 12.9075 14.2778 12.9075 14.2778C12.1298 14.3148 11.8705 15.3148 12.352 15.9074C12.6483 16.2778 13.2779 16.4259 13.7594 16.4259C15.8705 16.463 18.0187 14.9815 18.389 14.1296L18.4261 14.0556C18.352 14.1667 16.2779 16.0926 13.7594 16.0185C13.7594 16.0185 13.5001 16.0185 13.2409 15.9445C12.9075 15.8704 12.6483 15.7222 12.5372 15.3889C12.7594 15.4259 13.0187 15.463 13.3149 15.463C15.1298 15.463 16.4261 14.6482 16.3149 14.6111C16.3149 14.6111 16.3149 14.6111 16.2779 14.6111C16.0557 14.6482 13.8705 15.5 12.5001 15.0556C12.5001 15.0185 12.5001 14.9815 12.5372 14.9445C12.6483 14.5371 12.8705 14.5741 13.2409 14.5741C14.5001 14.5371 15.5001 14.2037 16.2779 13.8704C17.0927 13.5 17.7224 12.9815 17.9446 12.7222C18.2409 13.2037 18.2409 13.8334 18.2409 13.8334C18.2409 13.8334 18.352 13.7963 18.5001 13.7963C18.9446 13.8334 19.0187 14.2408 18.6853 14.6852Z" fill="black"/>
<path id="Vector_2" d="M9.90757 3.16667L10.1668 3.24074L9.94461 2.5L9.8335 2.87037L9.90757 3.16667Z" fill="black"/>
<path id="Vector_3" d="M11.0187 3.42598L10.6113 3.09265L10.7595 3.61117C10.8336 3.5371 10.9076 3.50006 11.0187 3.42598Z" fill="black"/>
<path id="Vector_4" d="M14.7591 10.0556C14.9814 10.0556 15.1665 10.0926 15.3517 10.1667C15.3517 9.64819 15.0554 9.09264 14.8332 9.16671C14.6851 9.20375 14.6851 9.42597 14.6851 9.57412C14.6851 9.75931 14.6851 9.90745 14.7591 10.0556Z" fill="black"/>
<path id="Vector_5" d="M10.574 3.72227L9.72217 3.46301L10.2777 3.94449C10.3888 3.87042 10.4629 3.79635 10.574 3.72227Z" fill="black"/>
<path id="Vector_6" d="M12.7591 10.7963C12.9443 10.8703 13.0554 10.9074 13.0554 10.8703C13.0554 10.8703 13.0554 10.7963 13.0183 10.7592C12.9072 10.6111 12.7221 10.4629 12.5369 10.4259C12.1295 10.2777 11.648 10.3518 11.3146 10.6481C11.1295 10.7963 11.0554 10.9444 11.1295 10.9444C11.1665 10.9444 11.2776 10.9074 11.4258 10.8703C12.0183 10.6111 12.3146 10.6111 12.7591 10.7963Z" fill="black"/>
<path id="Vector_7" d="M12.7963 11.2777C12.9075 11.2777 12.9815 11.2777 12.9815 11.2777C13.0186 11.2037 12.7593 11.0185 12.3519 11.0555C12.3149 11.0555 12.2778 11.0925 12.2037 11.0925H12.1667C12.0926 11.1296 11.9815 11.1666 11.9075 11.2407C11.8334 11.3148 11.7963 11.3888 11.8334 11.4259C11.8704 11.4629 11.9075 11.4259 12.0186 11.3888C12.3519 11.2777 12.5741 11.2777 12.7963 11.2777Z" fill="black"/>
<path id="Vector_8" d="M6.16653 12.9444C6.27764 13.0925 6.2406 13.1666 6.27764 13.2036C6.27764 13.2036 6.31468 13.2407 6.35171 13.2036C6.42579 13.1666 6.42579 13.0925 6.42579 13.0185C6.42579 12.8703 6.35171 12.6851 6.2406 12.574C6.09246 12.4259 5.90727 12.2777 5.64801 12.2407C5.42579 12.2036 5.20357 12.2407 5.16653 12.2777C5.12949 12.2777 5.09246 12.2777 5.05542 12.3148C4.46283 12.537 4.20357 13.1296 4.31468 13.6851C4.35171 13.8333 4.42579 13.9814 4.49986 14.0925C4.61097 14.2407 4.75912 14.2036 4.68505 14.0925C4.68505 14.0555 4.61097 13.9073 4.57394 13.6851C4.57394 13.4259 4.61097 13.1666 4.79616 12.9444C4.90727 12.7962 5.05542 12.7222 5.09245 12.7222C5.12949 12.7222 5.12949 12.6851 5.16653 12.6851H5.20357C5.27764 12.6481 5.2406 12.6851 5.31468 12.6481C5.75912 12.574 6.05542 12.7592 6.16653 12.9444Z" fill="black"/>
<path id="Vector_9" d="M5.98129 13.3889C5.94425 13.3519 5.90721 13.3149 5.90721 13.2778C5.90721 13.2037 5.90721 13.1667 5.98129 13.1297C6.01832 13.0926 6.05536 13.0926 6.05536 13.0556C6.05536 13.0186 5.90721 12.9815 5.75907 13.0926C5.64795 13.2037 5.64795 13.426 5.7961 13.5741C5.98129 13.7593 6.24055 13.7963 6.27758 14.0186C6.27758 14.0556 6.27758 14.0926 6.27758 14.1297C6.27758 14.1667 6.27758 14.2408 6.27758 14.2408C6.24055 14.463 6.01832 14.6852 5.64795 14.6111C5.57388 14.6111 5.53684 14.6111 5.53684 14.6111C5.49981 14.6482 5.64795 14.8334 5.94425 14.7963C6.35166 14.7963 6.64795 14.3889 6.57388 13.9445C6.53684 13.5741 6.12944 13.5 5.98129 13.3889Z" fill="black"/>
<path id="Vector_10" d="M15.5163 10.9094C15.5383 10.7679 15.4743 10.6405 15.3732 10.6247C15.2722 10.6089 15.1724 10.7109 15.1503 10.8523C15.1282 10.9938 15.1923 11.1213 15.2933 11.1371C15.3944 11.1528 15.4942 11.0509 15.5163 10.9094Z" fill="black"/>
<path id="Vector_11" d="M14.7217 11.3159C14.7807 11.2082 14.7122 11.0572 14.5687 10.9786C14.4252 10.8999 14.261 10.9234 14.202 11.0311C14.143 11.1387 14.2116 11.2897 14.3551 11.3684C14.4986 11.447 14.6627 11.4235 14.7217 11.3159Z" fill="black"/>
</g>
</g>
<defs>
<clipPath id="clip0_1_3495">
<rect width="21" height="21" fill="white" transform="translate(0.5 0.5)"/>
</clipPath>
</defs>
</svg>
