<svg width="91" height="24" viewBox="0 0 91 24" fill="none" xmlns="http://www.w3.org/2000/svg">
<path id="Vector" d="M60.3813 0H56.5914V21.0375C60.0357 21.1551 63.4654 21.3275 66.8812 21.5536V17.8472C64.7204 17.7042 62.554 17.5829 60.3813 17.4825V0ZM90.5 0.00212813H86.3368L83.5927 6.31525L81.1273 0.00212813H77.0265L81.4332 11.2828L76.6229 22.3495C77.9536 22.4784 79.2806 22.6158 80.6063 22.7611L83.4041 16.3265L86.1747 23.4196C87.6177 23.6038 89.057 23.796 90.4937 23.9995L90.5 23.9971L85.5629 11.359L90.5 0.00212813ZM43.582 20.8536L47.372 20.8528V12.2953H52.5096V8.58895H47.372V3.74207H54.162V0.0023163H43.582V20.8536ZM29.4293 3.74182H33.3959V21.074C34.657 21.0267 35.9208 20.9878 37.1858 20.9549V3.74182H41.1522V0.00212813H29.4293V3.74182ZM16.4723 22.1512C19.9654 21.8362 23.4746 21.5765 26.9997 21.375V17.6682C24.7475 17.7974 22.5016 17.9504 20.2622 18.1251V12.5137C21.7316 12.4992 23.6663 12.4547 25.3804 12.4759V8.76917C24.011 8.76585 21.8101 8.78814 20.2622 8.80779V3.74207H26.9997V0.0023163H16.4723V22.1512ZM9.038 13.5826L4.10188 0.00212813H0.5V24C1.76088 23.8218 3.02416 23.6513 4.28989 23.4876V10.4377L8.67894 22.9518C10.0594 22.7929 11.4423 22.6424 12.828 22.501V0.00212813H9.038V13.5826ZM70.0057 21.7768C71.2708 21.8728 72.5341 21.9759 73.7961 22.0874V0.00212813H70.0057V21.7768Z" fill="#ED1C24"/>
</svg>
