<svg width="46" height="37" viewBox="0 0 46 37" fill="none" xmlns="http://www.w3.org/2000/svg">
<path id="Vector" d="M35.0747 13.8754H24.1497V17.9223C24.1497 20.7912 21.8281 23.1254 18.9747 23.1254C16.1212 23.1254 13.7997 20.7912 13.7997 17.9223V9.13477L9.135 11.9531C7.74781 12.7842 6.89969 14.2945 6.89969 15.9133V19.3314L1.14969 22.6701C0.0499987 23.3061 -0.330939 24.7225 0.308749 25.8281L6.05875 35.8441C6.69125 36.9498 8.1 37.3256 9.19969 36.6897L16.6316 32.3754H26.4497C28.9869 32.3754 31.0497 30.3014 31.0497 27.7504H32.1997C33.4719 27.7504 34.4997 26.717 34.4997 25.4379V20.8129H35.0747C36.0306 20.8129 36.7997 20.0396 36.7997 19.0785V15.6098C36.7997 14.6486 36.0306 13.8754 35.0747 13.8754ZM45.6906 11.1727L39.9406 1.15664C39.3081 0.0509758 37.8994 -0.324805 36.7997 0.311132L29.3678 4.62539H22.0222C21.1597 4.62539 20.3187 4.87109 19.5856 5.32637L17.1778 6.83672C16.5022 7.25586 16.0997 8.0002 16.0997 8.79512V17.9223C16.0997 19.5193 17.3862 20.8129 18.9747 20.8129C20.5631 20.8129 21.8497 19.5193 21.8497 17.9223V11.5629H35.0747C37.2956 11.5629 39.0997 13.3768 39.0997 15.6098V17.6693L44.8497 14.3307C45.9494 13.6875 46.3231 12.2783 45.6906 11.1727Z" fill="black"/>
</svg>
