<svg width="60" height="60" viewBox="0 0 60 60" fill="none" xmlns="http://www.w3.org/2000/svg">
<g id="Layer_1">
<g id="Group">
<path id="Vector" d="M22.5 22.5C22.5 18.25 25.75 15 30 15C34.25 15 37.5 18.25 37.5 22.5C37.5 26.75 34.25 30 30 30C25.75 30 22.5 26.75 22.5 22.5ZM30 35C18.5 35 15 43.25 15 43.25V47.5H45V43.25C45 43.25 41.5 35 30 35Z" fill="white"/>
</g>
<g id="Group_2">
<g id="Group_3">
<path id="Vector_2" d="M46.25 27.5C49.7018 27.5 52.5 24.7018 52.5 21.25C52.5 17.7982 49.7018 15 46.25 15C42.7982 15 40 17.7982 40 21.25C40 24.7018 42.7982 27.5 46.25 27.5Z" fill="white"/>
</g>
<g id="Group_4">
<path id="Vector_3" d="M46.25 32.5C43.25 32.5 41 33.25 39.25 34.5C45 37.25 47.25 42 47.25 42.5V42.75H57.5V39.5C57.5 39.25 54.75 32.5 46.25 32.5Z" fill="white"/>
</g>
</g>
<g id="Group_5">
<g id="Group_6">
<path id="Vector_4" d="M46.25 27.5C49.7018 27.5 52.5 24.7018 52.5 21.25C52.5 17.7982 49.7018 15 46.25 15C42.7982 15 40 17.7982 40 21.25C40 24.7018 42.7982 27.5 46.25 27.5Z" fill="white"/>
</g>
<g id="Group_7">
<path id="Vector_5" d="M46.25 32.5C43.25 32.5 41 33.25 39.25 34.5C45 37.25 47.25 42 47.25 42.5V42.75H57.5V39.5C57.5 39.25 54.75 32.5 46.25 32.5Z" fill="white"/>
</g>
</g>
<g id="Group_8">
<g id="Group_9">
<path id="Vector_6" d="M13.75 27.5C17.2018 27.5 20 24.7018 20 21.25C20 17.7982 17.2018 15 13.75 15C10.2982 15 7.5 17.7982 7.5 21.25C7.5 24.7018 10.2982 27.5 13.75 27.5Z" fill="white"/>
</g>
<g id="Group_10">
<path id="Vector_7" d="M13.75 32.5C16.75 32.5 19 33.25 20.75 34.5C15 37.25 12.75 42 12.75 42.5V42.75H2.5V39.5C2.5 39.25 5.25 32.5 13.75 32.5Z" fill="white"/>
</g>
</g>
</g>
</svg>
