<svg width="11" height="11" viewBox="0 0 11 11" fill="none" xmlns="http://www.w3.org/2000/svg">
<g id="Layer_1">
<path id="Vector" d="M8.96758 4.8125H6.1875V2.03242C6.1875 1.66934 5.88027 1.375 5.5 1.375C5.11973 1.375 4.8125 1.66934 4.8125 2.03242V4.8125H2.03242C1.66934 4.8125 1.375 5.11973 1.375 5.5C1.375 5.88027 1.66934 6.1875 2.03242 6.1875H4.8125V8.96758C4.8125 9.33066 5.11973 9.625 5.5 9.625C5.88027 9.625 6.1875 9.33066 6.1875 8.96758V6.1875H8.96758C9.33066 6.1875 9.625 5.88027 9.625 5.5C9.625 5.11973 9.33066 4.8125 8.96758 4.8125Z" fill="#2159E7"/>
</g>
</svg>
