<svg width="100" height="100" viewBox="0 0 100 100" fill="none" xmlns="http://www.w3.org/2000/svg">
<g id="Frame">
<g id="79-users">
<path id="Vector" d="M50 56.25C58.6294 56.25 65.625 49.2544 65.625 40.625C65.625 31.9956 58.6294 25 50 25C41.3706 25 34.375 31.9956 34.375 40.625C34.375 49.2544 41.3706 56.25 50 56.25Z" stroke="black" stroke-width="3" stroke-linecap="round" stroke-linejoin="round"/>
<path id="Vector_2" d="M71.875 87.5C71.875 81.6984 69.5703 76.1344 65.468 72.032C61.3656 67.9297 55.8016 65.625 50 65.625C44.1984 65.625 38.6344 67.9297 34.532 72.032C30.4297 76.1344 28.125 81.6984 28.125 87.5H71.875Z" stroke="black" stroke-width="3" stroke-linecap="round" stroke-linejoin="round"/>
<path id="Vector_3" d="M75 43.75C77.6634 43.75 80.2826 43.0692 82.6088 41.7722C84.9351 40.4752 86.8912 38.6052 88.2914 36.3396C89.6916 34.0739 90.4895 31.488 90.6092 28.8273C90.7289 26.1666 90.1665 23.5195 88.9754 21.1373C87.7843 18.7551 86.0041 16.7169 83.8037 15.2162C81.6033 13.7156 79.0558 12.8023 76.4032 12.5631C73.7506 12.324 71.0809 12.7668 68.6475 13.8496C66.2142 14.9324 64.098 16.6193 62.5 18.75" stroke="black" stroke-width="3" stroke-linecap="round" stroke-linejoin="round"/>
<path id="Vector_4" d="M78.125 75H96.875C96.875 69.1984 94.5703 63.6344 90.468 59.532C86.3656 55.4297 80.8016 53.125 75 53.125" stroke="black" stroke-width="3" stroke-linecap="round" stroke-linejoin="round"/>
<path id="Vector_5" d="M37.5 18.75C35.902 16.6193 33.7858 14.9324 31.3525 13.8496C28.9191 12.7668 26.2494 12.324 23.5968 12.5631C20.9442 12.8023 18.3967 13.7156 16.1963 15.2162C13.9959 16.7169 12.2157 18.7551 11.0246 21.1373C9.83348 23.5195 9.27108 26.1666 9.39079 28.8273C9.51051 31.488 10.3084 34.0739 11.7086 36.3396C13.1088 38.6052 15.0649 40.4752 17.3912 41.7722C19.7174 43.0692 22.3366 43.75 25 43.75" stroke="black" stroke-width="3" stroke-linecap="round" stroke-linejoin="round"/>
<path id="Vector_6" d="M25 53.125C19.1984 53.125 13.6344 55.4297 9.53204 59.532C5.42968 63.6344 3.125 69.1984 3.125 75H21.875" stroke="black" stroke-width="3" stroke-linecap="round" stroke-linejoin="round"/>
</g>
</g>
</svg>
