<svg width="21" height="23" viewBox="0 0 21 23" fill="none" xmlns="http://www.w3.org/2000/svg">
<path id="Vector" d="M17.5001 15.9195C17.0288 15.9194 16.5623 16.0158 16.1289 16.2031C15.6954 16.3904 15.304 16.6647 14.9782 17.0093L6.88544 12.4031C7.0422 11.8076 7.0422 11.1809 6.88544 10.5854L14.9782 5.97922C15.5675 6.59729 16.3594 6.9768 17.2055 7.04665C18.0515 7.11649 18.8937 6.87189 19.5743 6.35865C20.2548 5.84542 20.7271 5.09877 20.9025 4.25859C21.078 3.41841 20.9446 2.54234 20.5274 1.79451C20.1101 1.04667 19.4377 0.478389 18.636 0.196116C17.8343 -0.0861574 16.9584 -0.0630509 16.1723 0.261106C15.3862 0.585263 14.744 1.18823 14.3658 1.95704C13.9877 2.72586 13.8996 3.60777 14.1181 4.43756L6.0253 9.04374C5.5419 8.53385 4.91874 8.18194 4.236 8.03327C3.55326 7.88461 2.84216 7.94599 2.19419 8.20953C1.54621 8.47306 0.991002 8.92669 0.599977 9.51205C0.208953 10.0974 0 10.7878 0 11.4942C0 12.2007 0.208953 12.8911 0.599977 13.4764C0.991002 14.0618 1.54621 14.5154 2.19419 14.779C2.84216 15.0425 3.55326 15.1039 4.236 14.9552C4.91874 14.8065 5.5419 14.4546 6.0253 13.9447L14.1181 18.5509C13.9305 19.2655 13.9687 20.0216 14.2275 20.7131C14.4863 21.4046 14.9526 21.9968 15.5609 22.4066C16.1693 22.8164 16.8893 23.0232 17.6198 22.9979C18.3503 22.9727 19.0546 22.7168 19.634 22.266C20.2133 21.8152 20.6386 21.1922 20.8502 20.4845C21.0618 19.7768 21.049 19.0198 20.8136 18.3198C20.5782 17.6198 20.1321 17.0119 19.5379 16.5814C18.9436 16.1509 18.231 15.9195 17.5001 15.9195Z" fill="#2159E7"/>
</svg>
