<svg width="24" height="25" viewBox="0 0 24 25" fill="none" xmlns="http://www.w3.org/2000/svg">
<g id="Social_Icons" clip-path="url(#clip0_1_3519)">
<g id="_x34__stroke">
<g id="Spotify_1_">
<path id="Spotify" fill-rule="evenodd" clip-rule="evenodd" d="M12 0.5C5.4 0.5 0 5.9 0 12.5C0 19.1 5.4 24.5 12 24.5C18.6 24.5 24 19.1 24 12.5C24 5.9 18.66 0.5 12 0.5ZM17.52 17.84C17.28 18.2 16.86 18.32 16.5 18.08C13.68 16.34 10.14 15.98 5.94 16.94C5.52 17.06 5.16 16.76 5.04 16.4C4.92 15.98 5.22 15.62 5.58 15.5C10.14 14.48 14.1 14.9 17.22 16.82C17.64 17 17.7 17.48 17.52 17.84ZM18.96 14.54C18.66 14.96 18.12 15.14 17.7 14.84C14.46 12.86 9.54 12.26 5.76 13.46C5.28 13.58 4.74 13.34 4.62 12.86C4.5 12.38 4.74 11.84 5.22 11.72C9.6 10.4 15 11.06 18.72 13.34C19.08 13.52 19.26 14.12 18.96 14.54ZM19.08 11.18C15.24 8.9 8.82 8.66 5.16 9.8C4.56 9.98 3.96 9.62 3.78 9.08C3.6 8.48 3.96 7.88 4.5 7.7C8.76 6.44 15.78 6.68 20.22 9.32C20.76 9.62 20.94 10.34 20.64 10.88C20.34 11.3 19.62 11.48 19.08 11.18Z" fill="#10BC4C"/>
</g>
</g>
</g>
<defs>
<clipPath id="clip0_1_3519">
<rect width="24" height="24" fill="white" transform="translate(0 0.5)"/>
</clipPath>
</defs>
</svg>
