<svg width="18" height="18" viewBox="0 0 18 18" fill="none" xmlns="http://www.w3.org/2000/svg">
<g id="Frame">
<g id="1">
<path id="Vector" d="M13.0167 14.9621C12.9309 14.9624 12.8464 14.9416 12.7706 14.9016L9.03558 12.9375L5.29988 14.9016C5.21282 14.9472 5.11476 14.9675 5.01677 14.9603C4.91878 14.9531 4.82475 14.9187 4.74528 14.8609C4.66582 14.8031 4.60408 14.7242 4.56703 14.6332C4.52997 14.5422 4.51908 14.4427 4.53558 14.3458L5.24925 10.1861L2.22582 7.24004C2.15531 7.17137 2.10543 7.08434 2.08181 6.98879C2.0582 6.89324 2.06179 6.79299 2.09219 6.69938C2.12259 6.60577 2.17858 6.52254 2.25382 6.4591C2.32907 6.39565 2.42057 6.35453 2.51797 6.34039L6.69488 5.73359L8.56273 1.94867C8.60629 1.86045 8.67365 1.78618 8.75721 1.73424C8.84077 1.68231 8.9372 1.65479 9.03558 1.65479C9.13397 1.65479 9.23039 1.68231 9.31395 1.73424C9.39751 1.78618 9.46488 1.86045 9.50843 1.94867L11.3763 5.73359L15.5528 6.34039C15.6503 6.35448 15.7418 6.39556 15.8171 6.45898C15.8924 6.5224 15.9484 6.60563 15.9789 6.69925C16.0093 6.79287 16.0129 6.89314 15.9893 6.98871C15.9657 7.08429 15.9159 7.17135 15.8453 7.24004L12.8219 10.1861L13.5356 14.3458C13.5485 14.4215 13.5448 14.4991 13.5247 14.5731C13.5045 14.6472 13.4684 14.716 13.419 14.7747C13.3695 14.8334 13.3078 14.8806 13.2382 14.9129C13.1686 14.9453 13.0927 14.9621 13.016 14.9621H13.0167ZM3.72699 7.23055L6.18265 9.62434C6.24372 9.68386 6.28943 9.75731 6.31589 9.83837C6.34234 9.91944 6.34873 10.0057 6.33453 10.0898L5.7548 13.4697L8.78949 11.875C8.86534 11.835 8.94982 11.8141 9.03558 11.8141C9.12135 11.8141 9.20582 11.835 9.28168 11.875L12.3171 13.4708L11.7366 10.0898C11.7222 10.0056 11.7285 9.91912 11.7549 9.83785C11.7812 9.75658 11.827 9.68295 11.8882 9.62328L14.3442 7.23055L10.9505 6.73836C10.866 6.72606 10.7857 6.6934 10.7165 6.64318C10.6474 6.59296 10.5915 6.52669 10.5536 6.45008L9.03558 3.37496L7.51789 6.45008C7.48 6.52674 7.42405 6.59303 7.35484 6.64326C7.28563 6.69348 7.20525 6.72612 7.12062 6.73836L3.72699 7.23055Z" fill="white"/>
</g>
</g>
</svg>
