<svg width="70" height="70" viewBox="0 0 70 70" fill="none" xmlns="http://www.w3.org/2000/svg">
<g id="Layer_1">
<g id="Group">
<path id="Vector" d="M9.21533 62.5385V53.4999V35.9999" stroke="#130B7A" stroke-miterlimit="2.6131" stroke-linecap="round" stroke-linejoin="round"/>
<path id="Vector_2" d="M9.21547 62.5386C9.21547 64.711 11.0429 66.4995 13.252 66.4995" stroke="#130B7A" stroke-miterlimit="2.6131" stroke-linecap="round" stroke-linejoin="round"/>
<path id="Vector_3" d="M13.2518 66.4995H57.2231" stroke="#130B7A" stroke-miterlimit="2.6131" stroke-linecap="round" stroke-linejoin="round"/>
<path id="Vector_4" d="M57.2232 66.4995C59.4265 66.4995 61.248 64.7226 61.248 62.5386" stroke="#130B7A" stroke-miterlimit="2.6131" stroke-linecap="round" stroke-linejoin="round"/>
<path id="Vector_5" d="M61.248 62.5386V19.3481L43.8134 3.50055H13.2518" stroke="#130B7A" stroke-miterlimit="2.6131" stroke-linecap="round" stroke-linejoin="round"/>
<path id="Vector_6" d="M13.252 3.50055C11.0311 3.50055 9.21547 5.29115 9.21547 7.46143" stroke="#130B7A" stroke-miterlimit="2.6131" stroke-linecap="round" stroke-linejoin="round"/>
<path id="Vector_7" d="M9.21533 7.46143V36.2731" stroke="#130B7A" stroke-miterlimit="2.6131" stroke-linecap="round" stroke-linejoin="round"/>
<path id="Vector_8" d="M43.0112 3.50055V18.1118" stroke="#130B7A" stroke-miterlimit="2.6131" stroke-linecap="round" stroke-linejoin="round"/>
<path id="Vector_9" d="M43.0111 18.1118C43.0111 19.2745 43.9879 20.2318 45.1641 20.2318" stroke="#130B7A" stroke-miterlimit="2.6131" stroke-linecap="round" stroke-linejoin="round"/>
<path id="Vector_10" d="M45.1641 20.2318H61.248" stroke="#130B7A" stroke-miterlimit="2.6131" stroke-linecap="round" stroke-linejoin="round"/>
<path id="Vector_11" d="M54.8862 30.1651H24.9254" stroke="#130B7A" stroke-miterlimit="2.6131" stroke-linecap="round" stroke-linejoin="round"/>
<path id="Vector_12" d="M55 44.0001L25 44.0001" stroke="#130B7A" stroke-miterlimit="2.6131" stroke-linecap="round" stroke-linejoin="round"/>
<path id="Vector_13" d="M55 58.0001L25 58.0001" stroke="#130B7A" stroke-miterlimit="2.6131" stroke-linecap="round" stroke-linejoin="round"/>
</g>
<path id="Vector_14" d="M23.5558 25L18.264 30.1324L15.4473 27.4014L15 27.8352L18.264 31L24 25.4338L23.5558 25Z" fill="#130B7A"/>
<path id="Vector_15" d="M23.5558 38L18.264 43.1324L15.4473 40.4014L15 40.8352L18.264 44L24 38.4338L23.5558 38Z" fill="#130B7A"/>
<path id="Vector_16" d="M23.5558 52L18.264 57.1324L15.4473 54.4014L15 54.8352L18.264 58L24 52.4338L23.5558 52Z" fill="#130B7A"/>
</g>
</svg>
