<svg width="25" height="25" viewBox="0 0 25 25" fill="none" xmlns="http://www.w3.org/2000/svg">
<g id="Frame">
<g id="_x33_39-trello">
<g id="Group">
<path id="Vector" d="M20.6038 1.71875H4.42248C2.93044 1.71875 1.72238 2.92686 1.72238 4.41406C1.71751 4.41406 1.72238 4.22155 1.72238 20.5858C1.72238 22.0731 2.93044 23.2812 4.41765 23.2812H20.5991C22.0815 23.2715 23.2799 22.0683 23.2799 20.5858V4.41406C23.2846 2.93164 22.0862 1.72841 20.6038 1.71875Z" fill="#007BC2"/>
<path id="Vector_2" d="M11.204 18.0492C11.1944 18.7568 10.6217 19.3296 9.9093 19.3296H5.92891C5.21655 19.3344 4.63422 18.7617 4.62939 18.0492V5.81463C4.62939 5.10227 5.20689 4.5199 5.92408 4.5199H9.91408C10.6264 4.5199 11.2088 5.09749 11.2088 5.81463V18.0492H11.204Z" fill="white"/>
<path id="Vector_3" d="M20.4977 12.6589C20.4977 13.3712 19.9201 13.9535 19.203 13.9535H15.3044C14.5921 13.9535 14.0098 13.3761 14.0098 12.6589V5.81947C14.0098 5.10716 14.5873 4.52478 15.2996 4.52478H19.203C19.9153 4.52478 20.4977 5.10233 20.4977 5.81947V12.6589Z" fill="white"/>
</g>
</g>
</g>
</svg>
