<svg width="20" height="20" viewBox="0 0 20 20" fill="none" xmlns="http://www.w3.org/2000/svg">
<g id="Layer_1">
<g id="Group">
<path id="Vector" d="M10 19C14.9706 19 19 14.9706 19 10C19 5.02944 14.9706 1 10 1C5.02944 1 1 5.02944 1 10C1 14.9706 5.02944 19 10 19Z" fill="#00A500"/>
<g id="Group_2">
<path id="Vector_2" fill-rule="evenodd" clip-rule="evenodd" d="M10.0248 12.6156C9.99242 12.5844 9.97402 12.5512 9.95182 12.521C9.93022 12.4924 9.90982 12.4628 9.88902 12.4338C9.86682 12.4026 9.84462 12.3714 9.82222 12.3404C9.80182 12.3112 9.78062 12.2818 9.75982 12.2526C9.73742 12.2218 9.71542 12.1904 9.69342 12.1592C9.67242 12.1302 9.65142 12.1014 9.63082 12.072C9.60842 12.0408 9.58682 12.0092 9.56402 11.9782C9.54282 11.9504 9.52602 11.9188 9.49642 11.8914C9.00542 12.4378 8.39862 12.7226 7.66402 12.7062C7.11102 12.6938 6.62382 12.4984 6.20542 12.1358C5.32342 11.3706 5.11782 10.0158 5.87722 8.9944C5.78362 8.7058 5.67122 8.4236 5.46802 8.189C5.48022 8.1698 5.49582 8.1746 5.50882 8.1746C5.59762 8.1742 5.68602 8.1742 5.77442 8.1742C6.16662 8.1742 6.55842 8.1742 6.95062 8.1742C6.97662 8.1742 7.00302 8.1742 7.02662 8.1742C7.03462 8.1668 7.04102 8.1628 7.04502 8.157C7.12182 8.0448 7.22102 7.9558 7.33062 7.8778C7.50282 7.7544 7.69242 7.6642 7.89042 7.591C8.11962 7.5058 8.35542 7.4464 8.59522 7.4032C8.95102 7.3388 9.31042 7.3094 9.67162 7.2974C9.92982 7.288 10.188 7.292 10.446 7.3048C10.8354 7.324 11.2216 7.3692 11.6018 7.461C11.8298 7.5164 12.052 7.588 12.2646 7.6888C12.401 7.7528 12.5312 7.8282 12.65 7.9216C12.7252 7.9814 12.7956 8.0462 12.8524 8.124C12.8688 8.147 12.8884 8.1616 12.9168 8.1642C12.95 8.1674 12.9828 8.174 13.0158 8.174C13.4678 8.1748 13.9196 8.1744 14.3712 8.1744C14.3972 8.1744 14.4228 8.1744 14.4548 8.1744C14.4452 8.2126 14.418 8.2298 14.4012 8.254C14.3836 8.2794 14.3636 8.3032 14.346 8.329C14.3284 8.3548 14.312 8.381 14.296 8.4076C14.28 8.4346 14.265 8.4616 14.2504 8.4888C14.2344 8.5184 14.2196 8.5482 14.2046 8.5782C14.1916 8.6064 14.179 8.6348 14.1668 8.6634C14.1546 8.692 14.1424 8.7204 14.1308 8.7494C14.119 8.7784 14.1088 8.8076 14.098 8.8366C14.0876 8.8656 14.0776 8.8948 14.0676 8.923C14.4802 9.4484 14.6552 10.0394 14.5686 10.698C14.4918 11.2836 14.2226 11.773 13.7718 12.1546C13.2798 12.571 12.7072 12.7538 12.0638 12.6972C11.4226 12.6402 10.9004 12.35 10.4794 11.8628C10.4326 11.925 10.3998 11.991 10.3614 12.0534C10.3238 12.1144 10.2882 12.1768 10.2518 12.2386C10.2138 12.3022 10.1766 12.3664 10.1384 12.4296C10.1016 12.4902 10.0676 12.5532 10.0248 12.6156ZM9.59262 10.391C9.58842 9.3598 8.76102 8.5288 7.73302 8.5274C6.67182 8.5254 5.86882 9.3906 5.86502 10.382C5.86142 11.4082 6.69742 12.25 7.72422 12.253C8.71862 12.2566 9.58582 11.455 9.59262 10.391ZM14.1342 10.3946C14.1414 9.3966 13.3338 8.5306 12.278 8.5274C11.2096 8.5242 10.412 9.3988 10.4082 10.3824C10.405 11.398 11.2314 12.2476 12.2624 12.2532C13.2882 12.2586 14.1354 11.4226 14.1342 10.3946ZM7.78222 8.2136C7.78822 8.2144 7.79462 8.2168 7.80062 8.216C8.04422 8.191 8.28242 8.2196 8.51622 8.2868C8.93762 8.4072 9.27562 8.6496 9.54022 8.9966C9.72622 9.2408 9.85722 9.513 9.95482 9.802C9.97682 9.8676 9.99682 9.9336 10.0174 9.9996C10.0394 9.993 10.0382 9.9742 10.0426 9.959C10.0862 9.8126 10.1366 9.668 10.1982 9.5282C10.325 9.241 10.4884 8.9786 10.716 8.7606C11.1422 8.3532 11.6528 8.1758 12.2396 8.2156C12.248 8.216 12.2568 8.2156 12.2692 8.2156C12.2594 8.1864 12.238 8.1738 12.2204 8.159C12.1304 8.0836 12.0328 8.0196 11.9302 7.963C11.7414 7.8584 11.542 7.7794 11.3344 7.7204C11.0418 7.6364 10.7432 7.5892 10.4392 7.572C10.0998 7.5532 9.76102 7.5536 9.42242 7.5868C9.20102 7.6086 8.98262 7.6466 8.76802 7.7048C8.52242 7.7712 8.28702 7.8622 8.06762 7.9912C7.97642 8.0448 7.88962 8.1036 7.81042 8.1732C7.79862 8.1836 7.78182 8.1914 7.78222 8.2136Z" fill="white"/>
<path id="Vector_3" fill-rule="evenodd" clip-rule="evenodd" d="M8.84128 10.3938C8.84408 10.991 8.35308 11.5086 7.71908 11.504C7.10888 11.5 6.61028 11.0036 6.61428 10.383C6.61868 9.74539 7.14568 9.27279 7.73348 9.27639C8.33708 9.27919 8.84668 9.77699 8.84128 10.3938ZM7.73088 11.1622C8.11808 11.1646 8.49888 10.856 8.50068 10.3912C8.50188 9.95599 8.15368 9.61579 7.72488 9.61819C7.26508 9.62059 6.95488 9.99899 6.95568 10.3896C6.95608 10.8144 7.30428 11.166 7.73088 11.1622Z" fill="white"/>
<path id="Vector_4" fill-rule="evenodd" clip-rule="evenodd" d="M12.2683 9.27742C12.8805 9.27042 13.3831 9.77741 13.3863 10.3852C13.3891 10.9738 12.9155 11.4996 12.2785 11.504C11.6459 11.5086 11.1581 10.9916 11.1577 10.3918C11.1573 9.77382 11.6645 9.27262 12.2683 9.27742ZM13.0437 10.391C13.0483 9.99722 12.7333 9.62062 12.2763 9.61802C11.8131 9.61522 11.4995 9.99721 11.4995 10.3894C11.4995 10.8078 11.8417 11.1602 12.2671 11.1624C12.6913 11.1648 13.0459 10.8176 13.0437 10.391Z" fill="white"/>
<path id="Vector_5" fill-rule="evenodd" clip-rule="evenodd" d="M7.73147 10.0132C7.94108 10.0148 8.10567 10.1846 8.10567 10.3948C8.10567 10.5636 7.97387 10.7656 7.72907 10.7666C7.51427 10.7682 7.35147 10.5978 7.35107 10.3888C7.35067 10.1798 7.52188 10.0118 7.73147 10.0132Z" fill="white"/>
<path id="Vector_6" fill-rule="evenodd" clip-rule="evenodd" d="M12.6495 10.3872C12.6499 10.5814 12.5013 10.7662 12.2733 10.7668C12.0515 10.768 11.8931 10.5922 11.8945 10.3898C11.8963 10.1516 12.0909 10.0136 12.2667 10.0132C12.4769 10.0128 12.6475 10.1782 12.6495 10.3872Z" fill="white"/>
</g>
</g>
</g>
</svg>
