<svg width="20" height="20" viewBox="0 0 20 20" fill="none" xmlns="http://www.w3.org/2000/svg">
<g id="Layer_1" clip-path="url(#clip0_1_3807)">
<g id="Group">
<g id="Dark_Blue">
<path id="Vector" d="M10 0C15.522 0 20 4.478 20 10C20 15.522 15.522 20 10 20C4.478 20 0 15.522 0 10C0 4.478 4.478 0 10 0Z" fill="white"/>
</g>
<g id="Logo_FIXED">
<path id="Vector_2" d="M7.68003 15.0801C12.396 15.0801 14.978 11.1721 14.978 7.7821C14.978 7.6721 14.978 7.5601 14.97 7.4501C15.472 7.0861 15.906 6.6381 16.25 6.1221C15.782 6.3301 15.286 6.4661 14.778 6.5261C15.314 6.2061 15.714 5.7021 15.906 5.1081C15.402 5.4061 14.852 5.6181 14.278 5.7301C13.306 4.6981 11.682 4.6481 10.65 5.6181C9.98403 6.2441 9.70203 7.1781 9.90803 8.0681C7.84603 7.9641 5.92403 6.9901 4.62203 5.3881C3.94203 6.5601 4.28803 8.0581 5.41603 8.8121C5.00803 8.8001 4.60803 8.6901 4.25203 8.4921C4.25203 8.5021 4.25203 8.5141 4.25203 8.5241C4.25203 9.7441 5.11203 10.7961 6.31003 11.0381C5.93203 11.1401 5.53603 11.1561 5.15203 11.0821C5.48803 12.1261 6.45003 12.8421 7.54803 12.8641C6.64003 13.5781 5.51803 13.9661 4.36403 13.9641C4.16003 13.9641 3.95603 13.9521 3.75403 13.9261C4.92203 14.6801 6.28803 15.0801 7.68003 15.0781" fill="#101720"/>
</g>
</g>
</g>
<defs>
<clipPath id="clip0_1_3807">
<rect width="20" height="20" fill="white"/>
</clipPath>
</defs>
</svg>
