<svg width="20" height="20" viewBox="0 0 20 20" fill="none" xmlns="http://www.w3.org/2000/svg">
<path id="Vector" d="M20 7.3999C20 7.5999 19.896 7.8 19.688 8L15.325 12.2L16.358 18.2999C16.366 18.2999 16.37 18.4 16.37 18.5C16.37 18.7 16.326 18.7999 16.238 18.8999C16.158 18.9999 16.038 19.1 15.877 19.1C15.725 19.1 15.565 19.1 15.397 19L10 16.1L4.6034 19C4.4271 19.1 4.2668 19.1 4.1226 19.1C3.9543 19.1 3.8261 18.9999 3.738 18.8999C3.6578 18.7999 3.6178 18.7 3.6178 18.5C3.6178 18.5 3.6258 18.3999 3.6418 18.2999L4.6755 12.2L0.3005 8C0.1002 7.8 0 7.5999 0 7.3999C0 7.0999 0.2244 6.8999 0.6731 6.8999L6.7067 6L9.411 0.5C9.563 0.2 9.76 0 10 0C10.24 0 10.437 0.2 10.589 0.5L13.293 6L19.327 6.8999C19.776 6.8999 20 7.0999 20 7.3999Z" fill="#F1C40F"/>
</svg>
