<svg width="71" height="75" viewBox="0 0 71 75" fill="none" xmlns="http://www.w3.org/2000/svg">
<path id="Ellipse 18" d="M37.4178 74.468C30.7907 74.4598 24.2874 72.672 18.5874 69.2914C12.8874 65.9108 8.19979 61.0615 5.01439 55.2502C1.82899 49.4388 0.262682 42.8787 0.479092 36.2551C0.695502 29.6315 2.6867 23.1876 6.24465 17.5966C9.8026 12.0056 14.7967 7.47262 20.7053 4.47134C26.6138 1.47005 33.2199 0.110569 39.8334 0.534926C46.4469 0.959283 52.8251 3.15191 58.3016 6.88372C63.7781 10.6155 68.152 15.7496 70.9662 21.7495L65.9408 24.1066C63.5488 19.0067 59.831 14.6427 55.176 11.4707C50.5209 8.29865 45.0995 6.43492 39.478 6.07422C33.8565 5.71351 28.2413 6.86907 23.2191 9.42016C18.1968 11.9713 13.9518 15.8243 10.9275 20.5766C7.90328 25.329 6.21076 30.8063 6.02681 36.4364C5.84286 42.0664 7.17422 47.6425 9.88181 52.5822C12.5894 57.5218 16.5738 61.6437 21.4189 64.5172C26.2639 67.3907 31.7917 68.9103 37.4247 68.9173L37.4178 74.468Z" fill="#2159E7"/>
</svg>
