<svg width="75" height="75" viewBox="0 0 75 75" fill="none" xmlns="http://www.w3.org/2000/svg">
<path id="Ellipse 19" d="M61.2141 65.8407C54.2271 71.6884 45.3285 74.7529 36.2225 74.4472C27.1165 74.1416 18.4433 70.4872 11.8643 64.1842C5.28521 57.8812 1.26273 49.3725 0.567304 40.288C-0.128123 31.2034 2.55239 22.1817 8.09541 14.9507C13.6384 7.71968 21.6543 2.78781 30.6077 1.09969C39.561 -0.58842 48.8225 1.0859 56.6181 5.80197C64.4136 10.518 70.1953 17.9443 72.8558 26.6583C75.5162 35.3724 74.8682 44.7616 71.0361 53.0276L66.0003 50.693C69.2576 43.6669 69.8083 35.6861 67.547 28.2791C65.2856 20.8722 60.3712 14.5599 53.7449 10.5512C47.1187 6.54255 39.2465 5.11937 31.6361 6.55427C24.0257 7.98916 17.2123 12.1813 12.5007 18.3276C7.78911 24.4739 5.51068 32.1425 6.10179 39.8643C6.69291 47.5862 10.112 54.8185 15.7042 60.1761C21.2964 65.5337 28.6686 68.6399 36.4087 68.8997C44.1488 69.1595 51.7126 66.5547 57.6515 61.5841L61.2141 65.8407Z" fill="#2159E7"/>
</svg>
