<svg width="10" height="10" viewBox="0 0 10 10" fill="none" xmlns="http://www.w3.org/2000/svg">
<path id="Vector" d="M4.47941 0.679234C4.48151 0.737077 4.49505 0.793934 4.51924 0.846523C4.54344 0.899112 4.57781 0.946394 4.62039 0.98564C4.66296 1.02489 4.71289 1.05532 4.76729 1.07518C4.82169 1.09505 4.87949 1.10395 4.93735 1.10138L7.78926 0.986423L0.786442 8.57292C0.707544 8.65839 0.665854 8.77169 0.670544 8.88788C0.675234 9.00407 0.72592 9.11364 0.811451 9.19249C0.896981 9.27133 1.01035 9.313 1.12662 9.30831C1.24289 9.30362 1.35253 9.25297 1.43143 9.1675L8.4283 1.58745L8.53961 4.42211C8.54463 4.53783 8.59527 4.64687 8.68046 4.72541C8.76566 4.80395 8.8785 4.84561 8.99433 4.84129C9.11013 4.83627 9.21924 4.78567 9.29784 4.70053C9.37643 4.61538 9.41811 4.50262 9.41378 4.38687L9.25473 0.446401C9.25371 0.394397 9.24218 0.343136 9.22083 0.2957C9.19948 0.248263 9.16875 0.20563 9.1305 0.170362C9.09224 0.135095 9.04724 0.107922 8.99821 0.0904769C8.94917 0.0730306 8.89712 0.0656725 8.84517 0.068844L4.90184 0.221595C4.84396 0.22369 4.78707 0.237219 4.73444 0.261398C4.68182 0.285579 4.63451 0.319932 4.59523 0.362477C4.55596 0.405022 4.52551 0.454916 4.50563 0.509282C4.48575 0.563648 4.47684 0.621409 4.47941 0.679234Z" fill="#101720"/>
</svg>
